<?xml version="1.0" encoding="UTF-8" standalone="no"?>
<!DOCTYPE svg PUBLIC "-//W3C//DTD SVG 1.1//EN"
 "http://www.w3.org/Graphics/SVG/1.1/DTD/svg11.dtd">
<!-- Generated by graphviz version 5.0.0 (0)
 -->
<!-- Title: DependencyNodes Pages: 1 -->
<svg width="479pt" height="571pt"
 viewBox="0.00 0.00 478.81 570.95" xmlns="http://www.w3.org/2000/svg" xmlns:xlink="http://www.w3.org/1999/xlink">
<g id="graph0" class="graph" transform="scale(1 1) rotate(0) translate(4 566.95)">
<title>DependencyNodes</title>
<polygon fill="white" stroke="transparent" points="-4,4 -4,-566.95 474.81,-566.95 474.81,4 -4,4"/>
<text text-anchor="middle" x="235.41" y="-547.75" font-family="Helvetica,Arial,sans-serif" font-size="14.00">Dependency nodes</text>
<!-- DNode_1 -->
<g id="node1" class="node">
<title>DNode_1</title>
<polygon fill="#f2f2f2" stroke="transparent" points="264.81,-387.98 92.81,-387.98 92.81,-151.98 264.81,-151.98 264.81,-387.98"/>
<polygon fill="none" stroke="black" points="92.81,-362.98 92.81,-387.98 264.81,-387.98 264.81,-362.98 92.81,-362.98"/>
<text text-anchor="start" x="152.31" y="-372.78" font-family="Helvetica,Arial,sans-serif" font-size="14.00"> </text>
<text text-anchor="start" x="156.31" y="-372.78" font-family="Helvetica,Arial,sans-serif" font-weight="bold" font-size="14.00">DNode</text>
<text text-anchor="start" x="201.31" y="-372.78" font-family="Helvetica,Arial,sans-serif" font-size="14.00"> </text>
<polygon fill="none" stroke="black" points="92.81,-276.98 92.81,-362.98 264.81,-362.98 264.81,-276.98 92.81,-276.98"/>
<text text-anchor="start" x="99.81" y="-344.78" font-family="Helvetica,Arial,sans-serif" font-size="14.00">+ properties</text>
<text text-anchor="start" x="99.81" y="-325.78" font-family="Helvetica,Arial,sans-serif" font-size="14.00">&#45; DNode[] dependencies &#160;&#160;</text>
<text text-anchor="start" x="99.81" y="-306.78" font-family="Helvetica,Arial,sans-serif" font-size="14.00">&#45; Statement entity</text>
<text text-anchor="start" x="99.81" y="-287.78" font-family="Helvetica,Arial,sans-serif" font-size="14.00">...</text>
<polygon fill="none" stroke="black" points="92.81,-251.98 92.81,-276.98 264.81,-276.98 264.81,-251.98 92.81,-251.98"/>
<text text-anchor="start" x="97.81" y="-260.78" font-family="Helvetica,Arial,sans-serif" font-size="14.00">+ methods</text>
<polygon fill="none" stroke="black" points="92.81,-226.98 92.81,-251.98 264.81,-251.98 264.81,-226.98 92.81,-226.98"/>
<text text-anchor="start" x="97.81" y="-235.78" font-family="Helvetica,Arial,sans-serif" font-size="14.00">+ needs(DNode)</text>
<polygon fill="none" stroke="black" points="92.81,-201.98 92.81,-226.98 264.81,-226.98 264.81,-201.98 92.81,-201.98"/>
<text text-anchor="start" x="97.81" y="-210.78" font-family="Helvetica,Arial,sans-serif" font-size="14.00">+ isVisited()</text>
<polygon fill="none" stroke="black" points="92.81,-176.98 92.81,-201.98 264.81,-201.98 264.81,-176.98 92.81,-176.98"/>
<text text-anchor="start" x="97.81" y="-185.78" font-family="Helvetica,Arial,sans-serif" font-size="14.00">+ markVisited()</text>
<polygon fill="none" stroke="black" points="92.81,-151.98 92.81,-176.98 264.81,-176.98 264.81,-151.98 92.81,-151.98"/>
<text text-anchor="start" x="97.81" y="-160.78" font-family="Helvetica,Arial,sans-serif" font-size="14.00">+ getEntity()</text>
</g>
<!-- SubDNode_1 -->
<g id="node2" class="node">
<title>SubDNode_1</title>
<polygon fill="#f2f2f2" stroke="transparent" points="470.81,-326.48 379.81,-326.48 379.81,-213.48 470.81,-213.48 470.81,-326.48"/>
<polygon fill="none" stroke="black" points="380.31,-300.98 380.31,-325.98 471.31,-325.98 471.31,-300.98 380.31,-300.98"/>
<text text-anchor="start" x="399.31" y="-310.78" font-family="Helvetica,Arial,sans-serif" font-size="14.00"> </text>
<text text-anchor="start" x="403.31" y="-310.78" font-family="Helvetica,Arial,sans-serif" font-weight="bold" font-size="14.00">DNode</text>
<text text-anchor="start" x="448.31" y="-310.78" font-family="Helvetica,Arial,sans-serif" font-size="14.00"> </text>
<polygon fill="none" stroke="black" points="380.31,-252.98 380.31,-300.98 471.31,-300.98 471.31,-252.98 380.31,-252.98"/>
<text text-anchor="start" x="387.31" y="-282.78" font-family="Helvetica,Arial,sans-serif" font-size="14.00">+ properties </text>
<text text-anchor="start" x="387.31" y="-263.78" font-family="Helvetica,Arial,sans-serif" font-size="14.00">...</text>
<polygon fill="none" stroke="black" points="380.31,-212.98 380.31,-252.98 471.31,-252.98 471.31,-212.98 380.31,-212.98"/>
<text text-anchor="start" x="385.31" y="-236.78" font-family="Helvetica,Arial,sans-serif" font-size="14.00">+ method</text>
<text text-anchor="start" x="385.31" y="-221.78" font-family="Helvetica,Arial,sans-serif" font-size="14.00">...</text>
</g>
<!-- SubDNode_1&#45;&gt;DNode_1 -->
<g id="edge1" class="edge">
<title>SubDNode_1&#45;&gt;DNode_1:dependenciesArray</title>
<path fill="none" stroke="black" stroke-dasharray="5,2" d="M368.12,-290.71C320.28,-308.05 259.81,-329.98 259.81,-329.98"/>
<polygon fill="black" stroke="black" points="368.37,-290.62 372.65,-284.81 379.65,-286.53 375.37,-292.33 368.37,-290.62"/>
<text text-anchor="middle" x="331.71" y="-299.14" font-family="Helvetica,Arial,sans-serif" font-size="14.00">depends on</text>
</g>
<!-- SubDNode_2 -->
<g id="node3" class="node">
<title>SubDNode_2</title>
<polygon fill="#f2f2f2" stroke="transparent" points="101.06,-539.95 10.06,-539.95 10.06,-426.95 101.06,-426.95 101.06,-539.95"/>
<polygon fill="none" stroke="black" points="10.56,-514.45 10.56,-539.45 101.56,-539.45 101.56,-514.45 10.56,-514.45"/>
<text text-anchor="start" x="29.56" y="-524.25" font-family="Helvetica,Arial,sans-serif" font-size="14.00"> </text>
<text text-anchor="start" x="33.56" y="-524.25" font-family="Helvetica,Arial,sans-serif" font-weight="bold" font-size="14.00">DNode</text>
<text text-anchor="start" x="78.56" y="-524.25" font-family="Helvetica,Arial,sans-serif" font-size="14.00"> </text>
<polygon fill="none" stroke="black" points="10.56,-466.45 10.56,-514.45 101.56,-514.45 101.56,-466.45 10.56,-466.45"/>
<text text-anchor="start" x="17.56" y="-496.25" font-family="Helvetica,Arial,sans-serif" font-size="14.00">+ properties </text>
<text text-anchor="start" x="17.56" y="-477.25" font-family="Helvetica,Arial,sans-serif" font-size="14.00">...</text>
<polygon fill="none" stroke="black" points="10.56,-426.45 10.56,-466.45 101.56,-466.45 101.56,-426.45 10.56,-426.45"/>
<text text-anchor="start" x="15.56" y="-450.25" font-family="Helvetica,Arial,sans-serif" font-size="14.00">+ methods</text>
<text text-anchor="start" x="15.56" y="-435.25" font-family="Helvetica,Arial,sans-serif" font-size="14.00">...</text>
</g>
<!-- SubDNode_2&#45;&gt;DNode_1 -->
<g id="edge2" class="edge">
<title>SubDNode_2&#45;&gt;DNode_1:dependenciesArray</title>
<path fill="none" stroke="black" stroke-dasharray="5,2" d="M74.4,-415.04C85.66,-374.1 97.81,-329.98 97.81,-329.98"/>
<polygon fill="black" stroke="black" points="74.36,-415.17 76.62,-422.01 71.17,-426.74 68.91,-419.89 74.36,-415.17"/>
<text text-anchor="middle" x="45.1" y="-376.31" font-family="Helvetica,Arial,sans-serif" font-size="14.00">depends on &#160;&#160;</text>
</g>
<!-- SubDNode_3 -->
<g id="node4" class="node">
<title>SubDNode_3</title>
<polygon fill="#f2f2f2" stroke="transparent" points="101.06,-113 10.06,-113 10.06,0 101.06,0 101.06,-113"/>
<polygon fill="none" stroke="black" points="10.56,-87.5 10.56,-112.5 101.56,-112.5 101.56,-87.5 10.56,-87.5"/>
<text text-anchor="start" x="29.56" y="-97.3" font-family="Helvetica,Arial,sans-serif" font-size="14.00"> </text>
<text text-anchor="start" x="33.56" y="-97.3" font-family="Helvetica,Arial,sans-serif" font-weight="bold" font-size="14.00">DNode</text>
<text text-anchor="start" x="78.56" y="-97.3" font-family="Helvetica,Arial,sans-serif" font-size="14.00"> </text>
<polygon fill="none" stroke="black" points="10.56,-39.5 10.56,-87.5 101.56,-87.5 101.56,-39.5 10.56,-39.5"/>
<text text-anchor="start" x="17.56" y="-69.3" font-family="Helvetica,Arial,sans-serif" font-size="14.00">+ properties </text>
<text text-anchor="start" x="17.56" y="-50.3" font-family="Helvetica,Arial,sans-serif" font-size="14.00">...</text>
<polygon fill="none" stroke="black" points="10.56,0.5 10.56,-39.5 101.56,-39.5 101.56,0.5 10.56,0.5"/>
<text text-anchor="start" x="15.56" y="-23.3" font-family="Helvetica,Arial,sans-serif" font-size="14.00">+ methods</text>
<text text-anchor="start" x="15.56" y="-8.3" font-family="Helvetica,Arial,sans-serif" font-size="14.00">...</text>
</g>
<!-- SubDNode_3&#45;&gt;DNode_1 -->
<g id="edge3" class="edge">
<title>SubDNode_3&#45;&gt;DNode_1:dependenciesArray</title>
<path fill="none" stroke="black" stroke-dasharray="5,2" d="M66.19,-125.28C78.7,-206.29 97.81,-329.98 97.81,-329.98"/>
<polygon fill="black" stroke="black" points="66.15,-125.02 61.28,-119.7 64.32,-113.16 69.19,-118.48 66.15,-125.02"/>
<text text-anchor="middle" x="41" y="-231.43" font-family="Helvetica,Arial,sans-serif" font-size="14.00">depends on &#160;&#160;</text>
</g>
</g>
</svg>
