<?xml version="1.0" encoding="UTF-8" standalone="no"?>
<!DOCTYPE svg PUBLIC "-//W3C//DTD SVG 1.1//EN"
 "http://www.w3.org/Graphics/SVG/1.1/DTD/svg11.dtd">
<!-- Generated by graphviz version 8.1.0 (20230707.0739)
 -->
<!-- Title: DependencyNodes Pages: 1 -->
<svg width="441pt" height="431pt"
 viewBox="0.00 0.00 441.12 431.00" xmlns="http://www.w3.org/2000/svg" xmlns:xlink="http://www.w3.org/1999/xlink">
<g id="graph0" class="graph" transform="scale(1 1) rotate(0) translate(4 427)">
<title>DependencyNodes</title>
<polygon fill="white" stroke="none" points="-4,4 -4,-427 437.12,-427 437.12,4 -4,4"/>
<text text-anchor="middle" x="216.56" y="-405.7" font-family="Helvetica,Arial,sans-serif" font-size="14.00">Dependency nodes</text>
<!-- DNode_1 -->
<g id="node1" class="node">
<title>DNode_1</title>
<polygon fill="#f2f2f2" stroke="none" points="298.62,-236 127.12,-236 127.12,0 298.62,0 298.62,-236"/>
<polygon fill="none" stroke="black" points="127.12,-211 127.12,-236 298.62,-236 298.62,-211 127.12,-211"/>
<text text-anchor="start" x="187" y="-218.7" font-family="Helvetica,Arial,sans-serif" font-size="14.00"> </text>
<text text-anchor="start" x="190.75" y="-218.7" font-family="Helvetica,Arial,sans-serif" font-weight="bold" font-size="14.00">DNode</text>
<text text-anchor="start" x="235" y="-218.7" font-family="Helvetica,Arial,sans-serif" font-size="14.00"> </text>
<polygon fill="none" stroke="black" points="127.12,-125 127.12,-211 298.62,-211 298.62,-125 127.12,-125"/>
<text text-anchor="start" x="134.12" y="-190.7" font-family="Helvetica,Arial,sans-serif" font-size="14.00">+ properties</text>
<text text-anchor="start" x="134.12" y="-171.7" font-family="Helvetica,Arial,sans-serif" font-size="14.00">&#45; DNode[] dependencies &#160;&#160;</text>
<text text-anchor="start" x="134.12" y="-152.7" font-family="Helvetica,Arial,sans-serif" font-size="14.00">&#45; Statement entity</text>
<text text-anchor="start" x="134.12" y="-133.7" font-family="Helvetica,Arial,sans-serif" font-size="14.00">...</text>
<polygon fill="none" stroke="black" points="127.12,-100 127.12,-125 298.62,-125 298.62,-100 127.12,-100"/>
<text text-anchor="start" x="132.12" y="-106.7" font-family="Helvetica,Arial,sans-serif" font-size="14.00">+ methods</text>
<polygon fill="none" stroke="black" points="127.12,-75 127.12,-100 298.62,-100 298.62,-75 127.12,-75"/>
<text text-anchor="start" x="132.12" y="-81.7" font-family="Helvetica,Arial,sans-serif" font-size="14.00">+ needs(DNode)</text>
<polygon fill="none" stroke="black" points="127.12,-50 127.12,-75 298.62,-75 298.62,-50 127.12,-50"/>
<text text-anchor="start" x="132.12" y="-56.7" font-family="Helvetica,Arial,sans-serif" font-size="14.00">+ isVisited()</text>
<polygon fill="none" stroke="black" points="127.12,-25 127.12,-50 298.62,-50 298.62,-25 127.12,-25"/>
<text text-anchor="start" x="132.12" y="-31.7" font-family="Helvetica,Arial,sans-serif" font-size="14.00">+ markVisited()</text>
<polygon fill="none" stroke="black" points="127.12,0 127.12,-25 298.62,-25 298.62,0 127.12,0"/>
<text text-anchor="start" x="132.12" y="-6.7" font-family="Helvetica,Arial,sans-serif" font-size="14.00">+ getEntity()</text>
</g>
<!-- SubDNode_1 -->
<g id="node2" class="node">
<title>SubDNode_1</title>
<polygon fill="#f2f2f2" stroke="none" points="127.75,-400 0,-400 0,-272 127.75,-272 127.75,-400"/>
<polygon fill="none" stroke="black" points="0,-375 0,-400 127.75,-400 127.75,-375 0,-375"/>
<text text-anchor="start" x="38" y="-382.7" font-family="Helvetica,Arial,sans-serif" font-size="14.00"> </text>
<text text-anchor="start" x="41.75" y="-382.7" font-family="Helvetica,Arial,sans-serif" font-weight="bold" font-size="14.00">DNode</text>
<text text-anchor="start" x="86" y="-382.7" font-family="Helvetica,Arial,sans-serif" font-size="14.00"> </text>
<polygon fill="none" stroke="black" points="0,-327 0,-375 127.75,-375 127.75,-327 0,-327"/>
<text text-anchor="start" x="7" y="-354.7" font-family="Helvetica,Arial,sans-serif" font-size="14.00">+ properties </text>
<text text-anchor="start" x="7" y="-335.7" font-family="Helvetica,Arial,sans-serif" font-size="14.00">...</text>
<polygon fill="none" stroke="black" points="0,-272 0,-327 127.75,-327 127.75,-272 0,-272"/>
<text text-anchor="start" x="5" y="-308.7" font-family="Helvetica,Arial,sans-serif" font-size="14.00"> &#160;&#160;&#160;&#160;&#160;&#160;&#160;&#160;&#160;&#160;&#160;&#160;&#160;&#160;&#160;+ method</text>
<text text-anchor="start" x="5" y="-293.7" font-family="Helvetica,Arial,sans-serif" font-size="14.00"> &#160;&#160;&#160;&#160;&#160;&#160;&#160;&#160;&#160;&#160;&#160;&#160;&#160;&#160;&#160;...</text>
<text text-anchor="start" x="41.38" y="-278.7" font-family="Helvetica,Arial,sans-serif" font-size="14.00"> &#160;&#160;&#160;&#160;&#160;&#160;&#160;&#160;&#160;&#160;&#160;</text>
</g>
<!-- SubDNode_1&#45;&gt;DNode_1 -->
<g id="edge1" class="edge">
<title>SubDNode_1&#45;&gt;DNode_1:dependenciesArray</title>
<path fill="none" stroke="black" stroke-dasharray="5,2" d="M68.41,-259.37C75.39,-219.19 92.02,-178 130.88,-178"/>
<polygon fill="black" stroke="black" points="68.42,-259.29 71.49,-265.82 66.64,-271.16 63.58,-264.63 68.42,-259.29"/>
<text text-anchor="middle" x="45.37" y="-218.49" font-family="Helvetica,Arial,sans-serif" font-size="14.00">depends on</text>
</g>
<!-- SubDNode_2 -->
<g id="node3" class="node">
<title>SubDNode_2</title>
<polygon fill="#f2f2f2" stroke="none" points="280.12,-400 145.62,-400 145.62,-272 280.12,-272 280.12,-400"/>
<polygon fill="none" stroke="black" points="145.62,-375 145.62,-400 280.12,-400 280.12,-375 145.62,-375"/>
<text text-anchor="start" x="187" y="-382.7" font-family="Helvetica,Arial,sans-serif" font-size="14.00"> </text>
<text text-anchor="start" x="190.75" y="-382.7" font-family="Helvetica,Arial,sans-serif" font-weight="bold" font-size="14.00">DNode</text>
<text text-anchor="start" x="235" y="-382.7" font-family="Helvetica,Arial,sans-serif" font-size="14.00"> </text>
<polygon fill="none" stroke="black" points="145.62,-327 145.62,-375 280.12,-375 280.12,-327 145.62,-327"/>
<text text-anchor="start" x="152.62" y="-354.7" font-family="Helvetica,Arial,sans-serif" font-size="14.00">+ properties </text>
<text text-anchor="start" x="152.62" y="-335.7" font-family="Helvetica,Arial,sans-serif" font-size="14.00">...</text>
<polygon fill="none" stroke="black" points="145.62,-272 145.62,-327 280.12,-327 280.12,-272 145.62,-272"/>
<text text-anchor="start" x="150.62" y="-308.7" font-family="Helvetica,Arial,sans-serif" font-size="14.00"> &#160;&#160;&#160;&#160;&#160;&#160;&#160;&#160;&#160;&#160;&#160;&#160;&#160;&#160;&#160;+ methods</text>
<text text-anchor="start" x="150.62" y="-293.7" font-family="Helvetica,Arial,sans-serif" font-size="14.00"> &#160;&#160;&#160;&#160;&#160;&#160;&#160;&#160;&#160;&#160;&#160;&#160;&#160;&#160;&#160;...</text>
<text text-anchor="start" x="190.38" y="-278.7" font-family="Helvetica,Arial,sans-serif" font-size="14.00"> &#160;&#160;&#160;&#160;&#160;&#160;&#160;&#160;&#160;&#160;&#160;</text>
</g>
<!-- SubDNode_2&#45;&gt;DNode_1 -->
<g id="edge2" class="edge">
<title>SubDNode_2&#45;&gt;DNode_1:dependenciesArray</title>
<path fill="none" stroke="black" stroke-dasharray="5,2" d="M279.1,-261.97C311.7,-220.99 336.07,-178 294.88,-178"/>
<polygon fill="black" stroke="black" points="279.05,-262.04 278.36,-269.22 271.47,-271.35 272.16,-264.17 279.05,-262.04"/>
<text text-anchor="middle" x="339.28" y="-237.43" font-family="Helvetica,Arial,sans-serif" font-size="14.00">depends on &#160;&#160;</text>
</g>
<!-- SubDNode_3 -->
<g id="node4" class="node">
<title>SubDNode_3</title>
<polygon fill="#f2f2f2" stroke="none" points="433.12,-400 298.62,-400 298.62,-272 433.12,-272 433.12,-400"/>
<polygon fill="none" stroke="black" points="298.62,-375 298.62,-400 433.12,-400 433.12,-375 298.62,-375"/>
<text text-anchor="start" x="340" y="-382.7" font-family="Helvetica,Arial,sans-serif" font-size="14.00"> </text>
<text text-anchor="start" x="343.75" y="-382.7" font-family="Helvetica,Arial,sans-serif" font-weight="bold" font-size="14.00">DNode</text>
<text text-anchor="start" x="388" y="-382.7" font-family="Helvetica,Arial,sans-serif" font-size="14.00"> </text>
<polygon fill="none" stroke="black" points="298.62,-327 298.62,-375 433.12,-375 433.12,-327 298.62,-327"/>
<text text-anchor="start" x="305.62" y="-354.7" font-family="Helvetica,Arial,sans-serif" font-size="14.00">+ properties </text>
<text text-anchor="start" x="305.62" y="-335.7" font-family="Helvetica,Arial,sans-serif" font-size="14.00">...</text>
<polygon fill="none" stroke="black" points="298.62,-272 298.62,-327 433.12,-327 433.12,-272 298.62,-272"/>
<text text-anchor="start" x="303.62" y="-308.7" font-family="Helvetica,Arial,sans-serif" font-size="14.00"> &#160;&#160;&#160;&#160;&#160;&#160;&#160;&#160;&#160;&#160;&#160;&#160;&#160;&#160;&#160;+ methods</text>
<text text-anchor="start" x="303.62" y="-293.7" font-family="Helvetica,Arial,sans-serif" font-size="14.00"> &#160;&#160;&#160;&#160;&#160;&#160;&#160;&#160;&#160;&#160;&#160;&#160;&#160;&#160;&#160;...</text>
<text text-anchor="start" x="343.38" y="-278.7" font-family="Helvetica,Arial,sans-serif" font-size="14.00"> &#160;&#160;&#160;&#160;&#160;&#160;&#160;&#160;&#160;&#160;&#160;</text>
</g>
<!-- SubDNode_3&#45;&gt;DNode_1 -->
<g id="edge3" class="edge">
<title>SubDNode_3&#45;&gt;DNode_1:dependenciesArray</title>
<path fill="none" stroke="black" stroke-dasharray="5,2" d="M359.67,-259.37C351.77,-219.19 334.1,-178 294.88,-178"/>
<polygon fill="black" stroke="black" points="359.67,-259.33 364.63,-264.56 361.72,-271.16 356.75,-265.93 359.67,-259.33"/>
<text text-anchor="middle" x="387.11" y="-218.08" font-family="Helvetica,Arial,sans-serif" font-size="14.00">depends on &#160;&#160;</text>
</g>
</g>
</svg>
