<?xml version="1.0" encoding="UTF-8" standalone="no"?>
<!DOCTYPE svg PUBLIC "-//W3C//DTD SVG 1.1//EN"
 "http://www.w3.org/Graphics/SVG/1.1/DTD/svg11.dtd">
<!-- Generated by graphviz version 7.1.0 (0)
 -->
<!-- Title: DependencyNodes Pages: 1 -->
<svg width="443pt" height="431pt"
 viewBox="0.00 0.00 442.50 431.00" xmlns="http://www.w3.org/2000/svg" xmlns:xlink="http://www.w3.org/1999/xlink">
<g id="graph0" class="graph" transform="scale(1 1) rotate(0) translate(4 427)">
<title>DependencyNodes</title>
<polygon fill="white" stroke="none" points="-4,4 -4,-427 438.5,-427 438.5,4 -4,4"/>
<text text-anchor="middle" x="217.25" y="-407.8" font-family="Helvetica,Arial,sans-serif" font-size="14.00">Dependency nodes</text>
<!-- DNode_1 -->
<g id="node1" class="node">
<title>DNode_1</title>
<polygon fill="#f2f2f2" stroke="none" points="300,-236 128,-236 128,0 300,0 300,-236"/>
<polygon fill="none" stroke="black" points="128,-211 128,-236 300,-236 300,-211 128,-211"/>
<text text-anchor="start" x="187.5" y="-220.8" font-family="Helvetica,Arial,sans-serif" font-size="14.00"> </text>
<text text-anchor="start" x="191.5" y="-220.8" font-family="Helvetica,Arial,sans-serif" font-weight="bold" font-size="14.00">DNode</text>
<text text-anchor="start" x="236.5" y="-220.8" font-family="Helvetica,Arial,sans-serif" font-size="14.00"> </text>
<polygon fill="none" stroke="black" points="128,-125 128,-211 300,-211 300,-125 128,-125"/>
<text text-anchor="start" x="135" y="-192.8" font-family="Helvetica,Arial,sans-serif" font-size="14.00">+ properties</text>
<text text-anchor="start" x="135" y="-173.8" font-family="Helvetica,Arial,sans-serif" font-size="14.00">&#45; DNode[] dependencies &#160;&#160;</text>
<text text-anchor="start" x="135" y="-154.8" font-family="Helvetica,Arial,sans-serif" font-size="14.00">&#45; Statement entity</text>
<text text-anchor="start" x="135" y="-135.8" font-family="Helvetica,Arial,sans-serif" font-size="14.00">...</text>
<polygon fill="none" stroke="black" points="128,-100 128,-125 300,-125 300,-100 128,-100"/>
<text text-anchor="start" x="133" y="-108.8" font-family="Helvetica,Arial,sans-serif" font-size="14.00">+ methods</text>
<polygon fill="none" stroke="black" points="128,-75 128,-100 300,-100 300,-75 128,-75"/>
<text text-anchor="start" x="133" y="-83.8" font-family="Helvetica,Arial,sans-serif" font-size="14.00">+ needs(DNode)</text>
<polygon fill="none" stroke="black" points="128,-50 128,-75 300,-75 300,-50 128,-50"/>
<text text-anchor="start" x="133" y="-58.8" font-family="Helvetica,Arial,sans-serif" font-size="14.00">+ isVisited()</text>
<polygon fill="none" stroke="black" points="128,-25 128,-50 300,-50 300,-25 128,-25"/>
<text text-anchor="start" x="133" y="-33.8" font-family="Helvetica,Arial,sans-serif" font-size="14.00">+ markVisited()</text>
<polygon fill="none" stroke="black" points="128,0 128,-25 300,-25 300,0 128,0"/>
<text text-anchor="start" x="133" y="-8.8" font-family="Helvetica,Arial,sans-serif" font-size="14.00">+ getEntity()</text>
</g>
<!-- SubDNode_1 -->
<g id="node2" class="node">
<title>SubDNode_1</title>
<polygon fill="#f2f2f2" stroke="none" points="128,-400 0,-400 0,-272 128,-272 128,-400"/>
<polygon fill="none" stroke="black" points="0,-375 0,-400 128,-400 128,-375 0,-375"/>
<text text-anchor="start" x="37.5" y="-384.8" font-family="Helvetica,Arial,sans-serif" font-size="14.00"> </text>
<text text-anchor="start" x="41.5" y="-384.8" font-family="Helvetica,Arial,sans-serif" font-weight="bold" font-size="14.00">DNode</text>
<text text-anchor="start" x="86.5" y="-384.8" font-family="Helvetica,Arial,sans-serif" font-size="14.00"> </text>
<polygon fill="none" stroke="black" points="0,-327 0,-375 128,-375 128,-327 0,-327"/>
<text text-anchor="start" x="7" y="-356.8" font-family="Helvetica,Arial,sans-serif" font-size="14.00">+ properties </text>
<text text-anchor="start" x="7" y="-337.8" font-family="Helvetica,Arial,sans-serif" font-size="14.00">...</text>
<polygon fill="none" stroke="black" points="0,-272 0,-327 128,-327 128,-272 0,-272"/>
<text text-anchor="start" x="5" y="-310.8" font-family="Helvetica,Arial,sans-serif" font-size="14.00"> &#160;&#160;&#160;&#160;&#160;&#160;&#160;&#160;&#160;&#160;&#160;&#160;&#160;&#160;&#160;+ method</text>
<text text-anchor="start" x="5" y="-295.8" font-family="Helvetica,Arial,sans-serif" font-size="14.00"> &#160;&#160;&#160;&#160;&#160;&#160;&#160;&#160;&#160;&#160;&#160;&#160;&#160;&#160;&#160;...</text>
<text text-anchor="start" x="41" y="-280.8" font-family="Helvetica,Arial,sans-serif" font-size="14.00"> &#160;&#160;&#160;&#160;&#160;&#160;&#160;&#160;&#160;&#160;&#160;</text>
</g>
<!-- SubDNode_1&#45;&gt;DNode_1 -->
<g id="edge1" class="edge">
<title>SubDNode_1&#45;&gt;DNode_1:dependenciesArray</title>
<path fill="none" stroke="black" stroke-dasharray="5,2" d="M68.95,-259.37C76.16,-219.19 93.05,-178 132,-178"/>
<polygon fill="black" stroke="black" points="68.96,-259.3 71.99,-265.84 67.11,-271.16 64.09,-264.61 68.96,-259.3"/>
<text text-anchor="middle" x="45.92" y="-220.59" font-family="Helvetica,Arial,sans-serif" font-size="14.00">depends on</text>
</g>
<!-- SubDNode_2 -->
<g id="node3" class="node">
<title>SubDNode_2</title>
<polygon fill="#f2f2f2" stroke="none" points="281.5,-400 146.5,-400 146.5,-272 281.5,-272 281.5,-400"/>
<polygon fill="none" stroke="black" points="147,-375 147,-400 282,-400 282,-375 147,-375"/>
<text text-anchor="start" x="188" y="-384.8" font-family="Helvetica,Arial,sans-serif" font-size="14.00"> </text>
<text text-anchor="start" x="192" y="-384.8" font-family="Helvetica,Arial,sans-serif" font-weight="bold" font-size="14.00">DNode</text>
<text text-anchor="start" x="237" y="-384.8" font-family="Helvetica,Arial,sans-serif" font-size="14.00"> </text>
<polygon fill="none" stroke="black" points="147,-327 147,-375 282,-375 282,-327 147,-327"/>
<text text-anchor="start" x="154" y="-356.8" font-family="Helvetica,Arial,sans-serif" font-size="14.00">+ properties </text>
<text text-anchor="start" x="154" y="-337.8" font-family="Helvetica,Arial,sans-serif" font-size="14.00">...</text>
<polygon fill="none" stroke="black" points="147,-272 147,-327 282,-327 282,-272 147,-272"/>
<text text-anchor="start" x="152" y="-310.8" font-family="Helvetica,Arial,sans-serif" font-size="14.00"> &#160;&#160;&#160;&#160;&#160;&#160;&#160;&#160;&#160;&#160;&#160;&#160;&#160;&#160;&#160;+ methods</text>
<text text-anchor="start" x="152" y="-295.8" font-family="Helvetica,Arial,sans-serif" font-size="14.00"> &#160;&#160;&#160;&#160;&#160;&#160;&#160;&#160;&#160;&#160;&#160;&#160;&#160;&#160;&#160;...</text>
<text text-anchor="start" x="191.5" y="-280.8" font-family="Helvetica,Arial,sans-serif" font-size="14.00"> &#160;&#160;&#160;&#160;&#160;&#160;&#160;&#160;&#160;&#160;&#160;</text>
</g>
<!-- SubDNode_2&#45;&gt;DNode_1 -->
<g id="edge2" class="edge">
<title>SubDNode_2&#45;&gt;DNode_1:dependenciesArray</title>
<path fill="none" stroke="black" stroke-dasharray="5,2" d="M280.23,-261.97C312.82,-220.99 337.19,-178 296,-178"/>
<polygon fill="black" stroke="black" points="280.17,-262.04 279.49,-269.22 272.6,-271.35 273.28,-264.17 280.17,-262.04"/>
<text text-anchor="middle" x="340.53" y="-239.53" font-family="Helvetica,Arial,sans-serif" font-size="14.00">depends on &#160;&#160;</text>
</g>
<!-- SubDNode_3 -->
<g id="node4" class="node">
<title>SubDNode_3</title>
<polygon fill="#f2f2f2" stroke="none" points="434.5,-400 299.5,-400 299.5,-272 434.5,-272 434.5,-400"/>
<polygon fill="none" stroke="black" points="300,-375 300,-400 435,-400 435,-375 300,-375"/>
<text text-anchor="start" x="341" y="-384.8" font-family="Helvetica,Arial,sans-serif" font-size="14.00"> </text>
<text text-anchor="start" x="345" y="-384.8" font-family="Helvetica,Arial,sans-serif" font-weight="bold" font-size="14.00">DNode</text>
<text text-anchor="start" x="390" y="-384.8" font-family="Helvetica,Arial,sans-serif" font-size="14.00"> </text>
<polygon fill="none" stroke="black" points="300,-327 300,-375 435,-375 435,-327 300,-327"/>
<text text-anchor="start" x="307" y="-356.8" font-family="Helvetica,Arial,sans-serif" font-size="14.00">+ properties </text>
<text text-anchor="start" x="307" y="-337.8" font-family="Helvetica,Arial,sans-serif" font-size="14.00">...</text>
<polygon fill="none" stroke="black" points="300,-272 300,-327 435,-327 435,-272 300,-272"/>
<text text-anchor="start" x="305" y="-310.8" font-family="Helvetica,Arial,sans-serif" font-size="14.00"> &#160;&#160;&#160;&#160;&#160;&#160;&#160;&#160;&#160;&#160;&#160;&#160;&#160;&#160;&#160;+ methods</text>
<text text-anchor="start" x="305" y="-295.8" font-family="Helvetica,Arial,sans-serif" font-size="14.00"> &#160;&#160;&#160;&#160;&#160;&#160;&#160;&#160;&#160;&#160;&#160;&#160;&#160;&#160;&#160;...</text>
<text text-anchor="start" x="344.5" y="-280.8" font-family="Helvetica,Arial,sans-serif" font-size="14.00"> &#160;&#160;&#160;&#160;&#160;&#160;&#160;&#160;&#160;&#160;&#160;</text>
</g>
<!-- SubDNode_3&#45;&gt;DNode_1 -->
<g id="edge3" class="edge">
<title>SubDNode_3&#45;&gt;DNode_1:dependenciesArray</title>
<path fill="none" stroke="black" stroke-dasharray="5,2" d="M360.8,-259.37C352.89,-219.19 335.22,-178 296,-178"/>
<polygon fill="black" stroke="black" points="360.79,-259.33 365.76,-264.56 362.84,-271.16 357.88,-265.93 360.79,-259.33"/>
<text text-anchor="middle" x="388.36" y="-220.18" font-family="Helvetica,Arial,sans-serif" font-size="14.00">depends on &#160;&#160;</text>
</g>
</g>
</svg>
