<?xml version="1.0" encoding="UTF-8" standalone="no"?>
<!DOCTYPE svg PUBLIC "-//W3C//DTD SVG 1.1//EN"
 "http://www.w3.org/Graphics/SVG/1.1/DTD/svg11.dtd">
<!-- Generated by graphviz version 8.1.0 (20230707.0739)
 -->
<!-- Title: CompilationProcess Pages: 1 -->
<svg width="198pt" height="572pt"
 viewBox="0.00 0.00 198.25 572.00" xmlns="http://www.w3.org/2000/svg" xmlns:xlink="http://www.w3.org/1999/xlink">
<g id="graph0" class="graph" transform="scale(1 1) rotate(0) translate(4 568)">
<title>CompilationProcess</title>
<polygon fill="white" stroke="none" points="-4,4 -4,-568 194.25,-568 194.25,4 -4,4"/>
<text text-anchor="middle" x="95.12" y="-546.7" font-family="Helvetica,Arial,sans-serif" font-size="14.00">Compilation process</text>
<!-- Lexer -->
<g id="node1" class="node">
<title>Lexer</title>
<polygon fill="#f2f2f2" stroke="none" points="121.88,-541 68.38,-541 68.38,-516 121.88,-516 121.88,-541"/>
<polygon fill="none" stroke="black" points="68.38,-516 68.38,-541 121.88,-541 121.88,-516 68.38,-516"/>
<text text-anchor="start" x="73.38" y="-523.7" font-family="Helvetica,Arial,sans-serif" font-size="14.00"> </text>
<text text-anchor="start" x="77.12" y="-523.7" font-family="Helvetica,Arial,sans-serif" font-weight="bold" font-size="14.00">Lexer</text>
<text text-anchor="start" x="113.12" y="-523.7" font-family="Helvetica,Arial,sans-serif" font-size="14.00"> </text>
</g>
<!-- Parser -->
<g id="node2" class="node">
<title>Parser</title>
<polygon fill="#f2f2f2" stroke="none" points="124.88,-480 65.38,-480 65.38,-455 124.88,-455 124.88,-480"/>
<polygon fill="none" stroke="black" points="65.38,-455 65.38,-480 124.88,-480 124.88,-455 65.38,-455"/>
<text text-anchor="start" x="70.38" y="-462.7" font-family="Helvetica,Arial,sans-serif" font-size="14.00"> </text>
<text text-anchor="start" x="74.12" y="-462.7" font-family="Helvetica,Arial,sans-serif" font-weight="bold" font-size="14.00">Parser</text>
<text text-anchor="start" x="116.12" y="-462.7" font-family="Helvetica,Arial,sans-serif" font-size="14.00"> </text>
</g>
<!-- Lexer&#45;&gt;Parser -->
<g id="edge1" class="edge">
<title>Lexer&#45;&gt;Parser</title>
<path fill="none" stroke="black" d="M95.12,-516.12C95.12,-508.62 95.12,-498.55 95.12,-489.6"/>
<polygon fill="black" stroke="black" points="95.12,-479.84 99.63,-489.84 95.13,-484.84 95.13,-489.84 95.13,-489.84 95.13,-489.84 95.13,-484.84 90.63,-489.84 95.12,-479.84 95.12,-479.84"/>
<text text-anchor="middle" x="75.25" y="-499.47" font-family="Helvetica,Arial,sans-serif" font-size="14.00">tokens</text>
</g>
<!-- Symbols -->
<g id="node3" class="node">
<title>Symbols</title>
<polygon fill="#f2f2f2" stroke="none" points="187.25,-419 3,-419 3,-327 187.25,-327 187.25,-419"/>
<polygon fill="none" stroke="black" points="3,-394 3,-419 187.25,-419 187.25,-394 3,-394"/>
<text text-anchor="start" x="62.88" y="-401.7" font-family="Helvetica,Arial,sans-serif" font-size="14.00"> </text>
<text text-anchor="start" x="66.62" y="-401.7" font-family="Helvetica,Arial,sans-serif" font-weight="bold" font-size="14.00">Symbols</text>
<text text-anchor="start" x="123.62" y="-401.7" font-family="Helvetica,Arial,sans-serif" font-size="14.00"> </text>
<polygon fill="none" stroke="black" points="3,-327 3,-394 187.25,-394 187.25,-327 3,-327"/>
<text text-anchor="start" x="10" y="-373.7" font-family="Helvetica,Arial,sans-serif" font-size="14.00">&#45; Meta processing &#160;&#160;&#160;&#160;&#160;&#160;&#160;&#160;&#160;&#160;&#160;&#160;</text>
<text text-anchor="start" x="10" y="-354.7" font-family="Helvetica,Arial,sans-serif" font-size="14.00">&#45; Pseudo&#45;entity resolution &#160;&#160;&#160;</text>
<text text-anchor="start" x="10" y="-335.7" font-family="Helvetica,Arial,sans-serif" font-size="14.00">&#45; Name collision detection &#160;&#160;&#160;</text>
</g>
<!-- Parser&#45;&gt;Symbols -->
<g id="edge2" class="edge">
<title>Parser&#45;&gt;Symbols</title>
<path fill="none" stroke="black" d="M95.12,-455.16C95.12,-448.14 95.12,-438.55 95.12,-428.43"/>
<polygon fill="black" stroke="black" points="95.12,-418.62 99.63,-428.62 95.13,-423.62 95.13,-428.62 95.13,-428.62 95.13,-428.62 95.13,-423.62 90.63,-428.62 95.12,-418.62 95.12,-418.62"/>
<text text-anchor="middle" x="65.88" y="-438.5" font-family="Helvetica,Arial,sans-serif" font-size="14.00">Container</text>
</g>
<!-- Dependency -->
<g id="node4" class="node">
<title>Dependency</title>
<polygon fill="#f2f2f2" stroke="none" points="185.38,-291 4.88,-291 4.88,-218 185.38,-218 185.38,-291"/>
<polygon fill="none" stroke="black" points="4.88,-266 4.88,-291 185.38,-291 185.38,-266 4.88,-266"/>
<text text-anchor="start" x="50.88" y="-273.7" font-family="Helvetica,Arial,sans-serif" font-size="14.00"> </text>
<text text-anchor="start" x="54.62" y="-273.7" font-family="Helvetica,Arial,sans-serif" font-weight="bold" font-size="14.00">Dependency</text>
<text text-anchor="start" x="135.62" y="-273.7" font-family="Helvetica,Arial,sans-serif" font-size="14.00"> </text>
<polygon fill="none" stroke="black" points="4.88,-218 4.88,-266 185.38,-266 185.38,-218 4.88,-218"/>
<text text-anchor="start" x="11.88" y="-245.7" font-family="Helvetica,Arial,sans-serif" font-size="14.00">&#45; Dependency generation &#160;&#160;&#160;</text>
<text text-anchor="start" x="11.88" y="-226.7" font-family="Helvetica,Arial,sans-serif" font-size="14.00">&#45; Linearization &#160;&#160;&#160;</text>
</g>
<!-- Symbols&#45;&gt;Dependency -->
<g id="edge3" class="edge">
<title>Symbols&#45;&gt;Dependency</title>
<path fill="none" stroke="black" d="M95.12,-327.29C95.12,-318.62 95.12,-309.53 95.12,-300.84"/>
<polygon fill="black" stroke="black" points="95.12,-290.87 99.63,-300.87 95.13,-295.87 95.13,-300.87 95.13,-300.87 95.13,-300.87 95.13,-295.87 90.63,-300.87 95.12,-290.87 95.12,-290.87"/>
<text text-anchor="middle" x="65.88" y="-310.78" font-family="Helvetica,Arial,sans-serif" font-size="14.00">Container</text>
</g>
<!-- TypeCheckCodeGen -->
<g id="node5" class="node">
<title>TypeCheckCodeGen</title>
<polygon fill="#f2f2f2" stroke="none" points="163.62,-182 26.62,-182 26.62,-109 163.62,-109 163.62,-182"/>
<polygon fill="none" stroke="black" points="26.62,-157 26.62,-182 163.62,-182 163.62,-157 26.62,-157"/>
<text text-anchor="start" x="70" y="-164.7" font-family="Helvetica,Arial,sans-serif" font-size="14.00"> </text>
<text text-anchor="start" x="73.75" y="-164.7" font-family="Helvetica,Arial,sans-serif" font-weight="bold" font-size="14.00">TC/GC</text>
<text text-anchor="start" x="116.5" y="-164.7" font-family="Helvetica,Arial,sans-serif" font-size="14.00"> </text>
<polygon fill="none" stroke="black" points="26.62,-109 26.62,-157 163.62,-157 163.62,-109 26.62,-109"/>
<text text-anchor="start" x="33.62" y="-136.7" font-family="Helvetica,Arial,sans-serif" font-size="14.00">&#45; Type checking &#160;&#160;&#160;</text>
<text text-anchor="start" x="33.62" y="-117.7" font-family="Helvetica,Arial,sans-serif" font-size="14.00">&#45; Code generation &#160;&#160;&#160;</text>
</g>
<!-- Dependency&#45;&gt;TypeCheckCodeGen -->
<g id="edge4" class="edge">
<title>Dependency&#45;&gt;TypeCheckCodeGen</title>
<path fill="none" stroke="black" d="M95.12,-218.17C95.12,-209.68 95.12,-200.49 95.12,-191.62"/>
<polygon fill="black" stroke="black" points="95.12,-181.8 99.63,-191.8 95.13,-186.8 95.13,-191.8 95.13,-191.8 95.13,-191.8 95.13,-186.8 90.63,-191.8 95.12,-181.8 95.12,-181.8"/>
<text text-anchor="middle" x="70.38" y="-201.7" font-family="Helvetica,Arial,sans-serif" font-size="14.00">DNodes</text>
</g>
<!-- InstructionEmit -->
<g id="node6" class="node">
<title>InstructionEmit</title>
<polygon fill="#f2f2f2" stroke="none" points="190.25,-73 0,-73 0,0 190.25,0 190.25,-73"/>
<polygon fill="none" stroke="black" points="0,-48 0,-73 190.25,-73 190.25,-48 0,-48"/>
<text text-anchor="start" x="76.38" y="-55.7" font-family="Helvetica,Arial,sans-serif" font-size="14.00"> </text>
<text text-anchor="start" x="80.12" y="-55.7" font-family="Helvetica,Arial,sans-serif" font-weight="bold" font-size="14.00">Emit</text>
<text text-anchor="start" x="110.12" y="-55.7" font-family="Helvetica,Arial,sans-serif" font-size="14.00"> </text>
<polygon fill="none" stroke="black" points="0,0 0,-48 190.25,-48 190.25,0 0,0"/>
<text text-anchor="start" x="7" y="-27.7" font-family="Helvetica,Arial,sans-serif" font-size="14.00">&#45; Instruction transformation &#160;&#160;&#160;</text>
<text text-anchor="start" x="7" y="-8.7" font-family="Helvetica,Arial,sans-serif" font-size="14.00">&#45; Symbol mapping &#160;&#160;&#160;</text>
</g>
<!-- TypeCheckCodeGen&#45;&gt;InstructionEmit -->
<g id="edge5" class="edge">
<title>TypeCheckCodeGen&#45;&gt;InstructionEmit</title>
<path fill="none" stroke="black" d="M95.12,-109.17C95.12,-100.68 95.12,-91.49 95.12,-82.62"/>
<polygon fill="black" stroke="black" points="95.12,-72.8 99.63,-82.8 95.13,-77.8 95.13,-82.8 95.13,-82.8 95.13,-82.8 95.13,-77.8 90.63,-82.8 95.12,-72.8 95.12,-72.8"/>
<text text-anchor="middle" x="60.62" y="-92.7" font-family="Helvetica,Arial,sans-serif" font-size="14.00">Instructions</text>
</g>
</g>
</svg>
