<?xml version="1.0" encoding="UTF-8" standalone="no"?>
<!DOCTYPE svg PUBLIC "-//W3C//DTD SVG 1.1//EN"
 "http://www.w3.org/Graphics/SVG/1.1/DTD/svg11.dtd">
<!-- Generated by graphviz version 5.0.0 (0)
 -->
<!-- Title: CodequeueProcess Pages: 1 -->
<svg width="463pt" height="730pt"
 viewBox="0.00 0.00 462.91 730.00" xmlns="http://www.w3.org/2000/svg" xmlns:xlink="http://www.w3.org/1999/xlink">
<g id="graph0" class="graph" transform="scale(1 1) rotate(0) translate(4 726)">
<title>CodequeueProcess</title>
<polygon fill="white" stroke="transparent" points="-4,4 -4,-726 458.91,-726 458.91,4 -4,4"/>
<text text-anchor="middle" x="227.46" y="-706.8" font-family="Helvetica,Arial,sans-serif" font-size="14.00">Code queueing process</text>
<g id="clust1" class="cluster">
<title>clusterLiteral</title>
<polygon fill="lightgrey" stroke="lightgrey" points="315,-8 315,-84 402,-84 402,-8 315,-8"/>
<text text-anchor="middle" x="358.5" y="-68.8" font-family="Helvetica,Arial,sans-serif" font-size="14.00">LiteralValue</text>
</g>
<g id="clust2" class="cluster">
<title>clusterFuncCall</title>
<polygon fill="lightgrey" stroke="lightgrey" points="8,-8 8,-84 118,-84 118,-8 8,-8"/>
<text text-anchor="middle" x="63" y="-68.8" font-family="Helvetica,Arial,sans-serif" font-size="14.00">FuncCall</text>
</g>
<g id="clust3" class="cluster">
<title>clusterBinaryOp</title>
<polygon fill="lightgrey" stroke="lightgrey" points="51,-92 51,-168 319,-168 319,-92 51,-92"/>
<text text-anchor="middle" x="185" y="-152.8" font-family="Helvetica,Arial,sans-serif" font-size="14.00">BinaryOp</text>
</g>
<!-- Codequeue0 -->
<g id="node1" class="node">
<title>Codequeue0</title>
<polygon fill="#f2f2f2" stroke="transparent" points="423,-699 257,-699 257,-645 423,-645 423,-699"/>
<polygon fill="none" stroke="black" points="257,-674 257,-699 423,-699 423,-674 257,-674"/>
<text text-anchor="start" x="262" y="-683.8" font-family="Helvetica,Arial,sans-serif" font-size="14.00"> </text>
<text text-anchor="start" x="266" y="-683.8" font-family="Helvetica,Arial,sans-serif" font-weight="bold" font-size="14.00">Code queue (state 0) &#160;&#160;&#160;</text>
<text text-anchor="start" x="414" y="-683.8" font-family="Helvetica,Arial,sans-serif" font-size="14.00"> </text>
<polygon fill="none" stroke="black" points="257,-645 257,-674 423,-674 423,-645 257,-645"/>
<text text-anchor="start" x="264" y="-656.8" font-family="Helvetica,Arial,sans-serif" font-size="14.00"> &#160;&#160;&#160;&#160;&#160;&#160;&#160;</text>
<text text-anchor="start" x="295" y="-656.8" font-family="Helvetica,Arial,sans-serif" font-style="italic" font-size="14.00">Empty queue</text>
<text text-anchor="start" x="376" y="-656.8" font-family="Helvetica,Arial,sans-serif" font-size="14.00"> &#160;&#160;&#160;</text>
</g>
<!-- Codequeue1 -->
<g id="node2" class="node">
<title>Codequeue1</title>
<polygon fill="#f2f2f2" stroke="transparent" points="423,-609 257,-609 257,-555 423,-555 423,-609"/>
<polygon fill="none" stroke="black" points="257,-584 257,-609 423,-609 423,-584 257,-584"/>
<text text-anchor="start" x="262" y="-593.8" font-family="Helvetica,Arial,sans-serif" font-size="14.00"> </text>
<text text-anchor="start" x="266" y="-593.8" font-family="Helvetica,Arial,sans-serif" font-weight="bold" font-size="14.00">Code queue (state 1)</text>
<text text-anchor="start" x="399" y="-593.8" font-family="Helvetica,Arial,sans-serif" font-size="14.00"> &#160;&#160;&#160;&#160;</text>
<polygon fill="none" stroke="black" points="257,-555 257,-584 423,-584 423,-555 257,-555"/>
<text text-anchor="start" x="264" y="-565.8" font-family="Helvetica,Arial,sans-serif" font-size="14.00">&#45; LiteralValue</text>
</g>
<!-- Codequeue0&#45;&gt;Codequeue1 -->
<g id="edge1" class="edge">
<title>Codequeue0&#45;&gt;Codequeue1</title>
<path fill="none" stroke="black" d="M340,-644.6C340,-636.61 340,-627.69 340,-619.18"/>
<polygon fill="black" stroke="black" points="343.5,-619.08 340,-609.08 336.5,-619.08 343.5,-619.08"/>
<text text-anchor="middle" x="302" y="-630.63" font-family="Times,serif" font-size="14.00">addInstr() </text>
</g>
<!-- cl1_value -->
<g id="node3" class="node">
<title>cl1_value</title>
<polygon fill="#f2f2f2" stroke="black" points="326,-16.5 326,-52.5 390,-52.5 390,-16.5 326,-16.5"/>
<text text-anchor="middle" x="358" y="-30.8" font-family="Helvetica,Arial,sans-serif" font-size="14.00">value: 1</text>
</g>
<!-- Codequeue1&#45;&gt;cl1_value -->
<g id="edge2" class="edge">
<title>Codequeue1:ss1&#45;&gt;cl1_value</title>
<path fill="none" stroke="black" d="M419,-569C501.24,-569 415,-466.24 415,-384 415,-384 415,-384 415,-202 415,-150.22 390.02,-94.03 373.13,-61.96"/>
<polygon fill="black" stroke="black" points="376.02,-59.95 368.19,-52.81 369.87,-63.28 376.02,-59.95"/>
</g>
<!-- Codequeue2 -->
<g id="node5" class="node">
<title>Codequeue2</title>
<polygon fill="#f2f2f2" stroke="transparent" points="368,-519 202,-519 202,-446 368,-446 368,-519"/>
<polygon fill="none" stroke="black" points="202,-493.5 202,-518.5 368,-518.5 368,-493.5 202,-493.5"/>
<text text-anchor="start" x="207" y="-503.3" font-family="Helvetica,Arial,sans-serif" font-size="14.00"> </text>
<text text-anchor="start" x="211" y="-503.3" font-family="Helvetica,Arial,sans-serif" font-weight="bold" font-size="14.00">Code queue (state 2) &#160;&#160;&#160;</text>
<text text-anchor="start" x="359" y="-503.3" font-family="Helvetica,Arial,sans-serif" font-size="14.00"> </text>
<polygon fill="none" stroke="black" points="202,-445.5 202,-493.5 368,-493.5 368,-445.5 202,-445.5"/>
<text text-anchor="start" x="209" y="-475.3" font-family="Helvetica,Arial,sans-serif" font-size="14.00">&#45; FuncCall</text>
<text text-anchor="start" x="209" y="-456.3" font-family="Helvetica,Arial,sans-serif" font-size="14.00">&#45; LiteralValue</text>
</g>
<!-- Codequeue1&#45;&gt;Codequeue2 -->
<g id="edge3" class="edge">
<title>Codequeue1&#45;&gt;Codequeue2</title>
<path fill="none" stroke="black" d="M325.26,-554.87C320.58,-546.58 315.27,-537.16 310.08,-527.96"/>
<polygon fill="black" stroke="black" points="305.16,-519.23 313.99,-525.73 307.61,-523.59 310.07,-527.94 310.07,-527.94 310.07,-527.94 307.61,-523.59 306.15,-530.15 305.16,-519.23 305.16,-519.23"/>
<text text-anchor="middle" x="277.2" y="-540.84" font-family="Times,serif" font-size="14.00">addInstr() </text>
</g>
<!-- cl2_value -->
<g id="node4" class="node">
<title>cl2_value</title>
<polygon fill="#f2f2f2" stroke="black" points="16.5,-16.5 16.5,-52.5 109.5,-52.5 109.5,-16.5 16.5,-16.5"/>
<text text-anchor="middle" x="63" y="-30.8" font-family="Helvetica,Arial,sans-serif" font-size="14.00">symbol: func</text>
</g>
<!-- Codequeue2&#45;&gt;cl1_value -->
<g id="edge5" class="edge">
<title>Codequeue2:ss2&#45;&gt;cl1_value</title>
<path fill="none" stroke="black" d="M364,-459.5C437.78,-459.5 377,-367.78 377,-294 377,-294 377,-294 377,-202 377,-152.86 368.73,-96.08 363.1,-63.14"/>
<polygon fill="black" stroke="black" points="361.31,-52.92 367.47,-62 362.17,-57.85 363.04,-62.77 363.04,-62.77 363.04,-62.77 362.17,-57.85 358.6,-63.55 361.31,-52.92 361.31,-52.92"/>
</g>
<!-- Codequeue2&#45;&gt;cl2_value -->
<g id="edge4" class="edge">
<title>Codequeue2:ss1&#45;&gt;cl2_value</title>
<path fill="none" stroke="black" d="M206,-478.5C92.98,-478.5 31,-407.02 31,-294 31,-294 31,-294 31,-202 31,-152.07 45.05,-95.2 54.53,-62.51"/>
<polygon fill="black" stroke="black" points="57.43,-52.79 58.89,-63.66 56,-57.58 54.57,-62.37 54.57,-62.37 54.57,-62.37 56,-57.58 50.26,-61.09 57.43,-52.79 57.43,-52.79"/>
</g>
<!-- Codequeue3 -->
<g id="node6" class="node">
<title>Codequeue3</title>
<polygon fill="#f2f2f2" stroke="transparent" points="349,-410 183,-410 183,-356 349,-356 349,-410"/>
<polygon fill="none" stroke="black" points="183,-385 183,-410 349,-410 349,-385 183,-385"/>
<text text-anchor="start" x="188" y="-394.8" font-family="Helvetica,Arial,sans-serif" font-size="14.00"> </text>
<text text-anchor="start" x="192" y="-394.8" font-family="Helvetica,Arial,sans-serif" font-weight="bold" font-size="14.00">Code queue (state 3) &#160;&#160;&#160;</text>
<text text-anchor="start" x="340" y="-394.8" font-family="Helvetica,Arial,sans-serif" font-size="14.00"> </text>
<polygon fill="none" stroke="black" points="183,-356 183,-385 349,-385 349,-356 183,-356"/>
<text text-anchor="start" x="190" y="-366.8" font-family="Helvetica,Arial,sans-serif" font-size="14.00">&#45; LiteralValue</text>
</g>
<!-- Codequeue2&#45;&gt;Codequeue3 -->
<g id="edge6" class="edge">
<title>Codequeue2&#45;&gt;Codequeue3</title>
<path fill="none" stroke="black" d="M278.03,-445.75C276.41,-437.4 274.67,-428.51 273.04,-420.15"/>
<polygon fill="black" stroke="black" points="271.12,-410.28 277.45,-419.24 272.08,-415.19 273.03,-420.1 273.03,-420.1 273.03,-420.1 272.08,-415.19 268.62,-420.96 271.12,-410.28 271.12,-410.28"/>
<text text-anchor="middle" x="236.6" y="-431.91" font-family="Times,serif" font-size="14.00">popInstr() </text>
</g>
<!-- Codequeue3&#45;&gt;cl1_value -->
<g id="edge7" class="edge">
<title>Codequeue3:ss2&#45;&gt;cl1_value</title>
<path fill="none" stroke="black" d="M294.88,-355.78C304.4,-345.56 314.06,-333.14 320,-320 359.58,-232.47 361.1,-115.42 359.43,-62.96"/>
<polygon fill="black" stroke="black" points="359.04,-52.78 363.92,-62.6 359.23,-57.78 359.43,-62.77 359.43,-62.77 359.43,-62.77 359.23,-57.78 354.93,-62.95 359.04,-52.78 359.04,-52.78"/>
</g>
<!-- Codequeue4 -->
<g id="node7" class="node">
<title>Codequeue4</title>
<polygon fill="#f2f2f2" stroke="transparent" points="310.5,-320 129.5,-320 129.5,-266 310.5,-266 310.5,-320"/>
<polygon fill="none" stroke="black" points="130,-295 130,-320 311,-320 311,-295 130,-295"/>
<text text-anchor="start" x="135" y="-304.8" font-family="Helvetica,Arial,sans-serif" font-size="14.00"> </text>
<text text-anchor="start" x="139" y="-304.8" font-family="Helvetica,Arial,sans-serif" font-weight="bold" font-size="14.00">Code queue (state 4.0 ) &#160;&#160;&#160;</text>
<text text-anchor="start" x="302" y="-304.8" font-family="Helvetica,Arial,sans-serif" font-size="14.00"> </text>
<polygon fill="none" stroke="black" points="130,-266 130,-295 311,-295 311,-266 130,-266"/>
<text text-anchor="start" x="137" y="-277.8" font-family="Helvetica,Arial,sans-serif" font-size="14.00"> &#160;&#160;&#160;&#160;&#160;&#160;&#160;</text>
<text text-anchor="start" x="168" y="-277.8" font-family="Helvetica,Arial,sans-serif" font-style="italic" font-size="14.00">Empty queue</text>
<text text-anchor="start" x="249" y="-277.8" font-family="Helvetica,Arial,sans-serif" font-size="14.00"> &#160;&#160;&#160;</text>
</g>
<!-- Codequeue3&#45;&gt;Codequeue4 -->
<g id="edge8" class="edge">
<title>Codequeue3&#45;&gt;Codequeue4</title>
<path fill="none" stroke="black" d="M252.2,-355.6C247.84,-347.26 242.95,-337.9 238.32,-329.06"/>
<polygon fill="black" stroke="black" points="233.63,-320.08 242.25,-326.86 235.95,-324.51 238.27,-328.94 238.27,-328.94 238.27,-328.94 235.95,-324.51 234.28,-331.03 233.63,-320.08 233.63,-320.08"/>
<text text-anchor="middle" x="204.93" y="-341.67" font-family="Times,serif" font-size="14.00">popInstr() </text>
</g>
<!-- Codequeue5 -->
<g id="node8" class="node">
<title>Codequeue5</title>
<polygon fill="#f2f2f2" stroke="transparent" points="310.5,-230 129.5,-230 129.5,-176 310.5,-176 310.5,-230"/>
<polygon fill="none" stroke="black" points="130,-205 130,-230 311,-230 311,-205 130,-205"/>
<text text-anchor="start" x="135" y="-214.8" font-family="Helvetica,Arial,sans-serif" font-size="14.00"> </text>
<text text-anchor="start" x="139" y="-214.8" font-family="Helvetica,Arial,sans-serif" font-weight="bold" font-size="14.00">Code queue (state 4.1 ) &#160;&#160;&#160;</text>
<text text-anchor="start" x="302" y="-214.8" font-family="Helvetica,Arial,sans-serif" font-size="14.00"> </text>
<polygon fill="none" stroke="black" points="130,-176 130,-205 311,-205 311,-176 130,-176"/>
<text text-anchor="start" x="137" y="-186.8" font-family="Helvetica,Arial,sans-serif" font-size="14.00">&#45; BinOpInstr</text>
</g>
<!-- Codequeue4&#45;&gt;Codequeue5 -->
<g id="edge9" class="edge">
<title>Codequeue4&#45;&gt;Codequeue5</title>
<path fill="none" stroke="black" d="M220,-265.6C220,-257.61 220,-248.69 220,-240.18"/>
<polygon fill="black" stroke="black" points="220,-230.08 224.5,-240.08 220,-235.08 220,-240.08 220,-240.08 220,-240.08 220,-235.08 215.5,-240.08 220,-230.08 220,-230.08"/>
<text text-anchor="middle" x="182" y="-251.63" font-family="Times,serif" font-size="14.00">addInstr() </text>
</g>
<!-- cl3_value -->
<g id="node9" class="node">
<title>cl3_value</title>
<polygon fill="#f2f2f2" stroke="black" points="227.5,-100.5 227.5,-136.5 310.5,-136.5 310.5,-100.5 227.5,-100.5"/>
<text text-anchor="middle" x="269" y="-114.8" font-family="Helvetica,Arial,sans-serif" font-size="14.00">operator: +</text>
</g>
<!-- Codequeue5&#45;&gt;cl3_value -->
<g id="edge12" class="edge">
<title>Codequeue5:ss1&#45;&gt;cl3_value</title>
<path fill="none" stroke="black" d="M221,-180C221,-166.22 228.74,-153.75 238,-143.76"/>
<polygon fill="black" stroke="black" points="245.28,-136.63 241.29,-146.84 241.71,-140.13 238.14,-143.63 238.14,-143.63 238.14,-143.63 241.71,-140.13 234.99,-140.41 245.28,-136.63 245.28,-136.63"/>
</g>
<!-- leftInstr -->
<g id="node10" class="node">
<title>leftInstr</title>
<polygon fill="#f2f2f2" stroke="black" points="147,-100.5 147,-136.5 209,-136.5 209,-100.5 147,-100.5"/>
<text text-anchor="middle" x="178" y="-114.8" font-family="Helvetica,Arial,sans-serif" font-size="14.00">leftInstr</text>
</g>
<!-- leftInstr&#45;&gt;cl1_value -->
<g id="edge10" class="edge">
<title>leftInstr&#45;&gt;cl1_value</title>
<path fill="none" stroke="black" d="M204.08,-100.36C208.96,-97.42 214.07,-94.51 219,-92 250.77,-75.81 288.3,-60.79 316.35,-50.3"/>
<polygon fill="black" stroke="black" points="325.85,-46.79 318.03,-54.48 321.16,-48.53 316.47,-50.26 316.47,-50.26 316.47,-50.26 321.16,-48.53 314.91,-46.04 325.85,-46.79 325.85,-46.79"/>
</g>
<!-- rightInstr -->
<g id="node11" class="node">
<title>rightInstr</title>
<polygon fill="#f2f2f2" stroke="black" points="59.5,-100.5 59.5,-136.5 128.5,-136.5 128.5,-100.5 59.5,-100.5"/>
<text text-anchor="middle" x="94" y="-114.8" font-family="Helvetica,Arial,sans-serif" font-size="14.00">rightInstr</text>
</g>
<!-- rightInstr&#45;&gt;cl2_value -->
<g id="edge11" class="edge">
<title>rightInstr&#45;&gt;cl2_value</title>
<path fill="none" stroke="black" d="M87.43,-100.11C83.25,-89.06 77.75,-74.53 73.04,-62.05"/>
<polygon fill="black" stroke="black" points="69.46,-52.58 77.2,-60.35 71.23,-57.26 72.99,-61.94 72.99,-61.94 72.99,-61.94 71.23,-57.26 68.79,-63.53 69.46,-52.58 69.46,-52.58"/>
</g>
</g>
</svg>
