<?xml version="1.0" encoding="UTF-8" standalone="no"?>
<!DOCTYPE svg PUBLIC "-//W3C//DTD SVG 1.1//EN"
 "http://www.w3.org/Graphics/SVG/1.1/DTD/svg11.dtd">
<!-- Generated by graphviz version 8.1.0 (20230707.0739)
 -->
<!-- Title: Pooling Pages: 1 -->
<svg width="271pt" height="514pt"
 viewBox="0.00 0.00 271.24 514.00" xmlns="http://www.w3.org/2000/svg" xmlns:xlink="http://www.w3.org/1999/xlink">
<g id="graph0" class="graph" transform="scale(1 1) rotate(0) translate(4 510)">
<title>Pooling</title>
<polygon fill="white" stroke="none" points="-4,4 -4,-510 267.24,-510 267.24,4 -4,4"/>
<text text-anchor="middle" x="131.62" y="-488.7" font-family="Helvetica,Arial,sans-serif" font-size="14.00">Pooling of a parse node to a DNode</text>
<!-- DNode_1 -->
<g id="node1" class="node">
<title>DNode_1</title>
<polygon fill="#f2f2f2" stroke="none" points="172.5,-236 1,-236 1,0 172.5,0 172.5,-236"/>
<polygon fill="none" stroke="black" points="1,-211 1,-236 172.5,-236 172.5,-211 1,-211"/>
<text text-anchor="start" x="60.88" y="-218.7" font-family="Helvetica,Arial,sans-serif" font-size="14.00"> </text>
<text text-anchor="start" x="64.62" y="-218.7" font-family="Helvetica,Arial,sans-serif" font-weight="bold" font-size="14.00">DNode</text>
<text text-anchor="start" x="108.88" y="-218.7" font-family="Helvetica,Arial,sans-serif" font-size="14.00"> </text>
<polygon fill="none" stroke="black" points="1,-125 1,-211 172.5,-211 172.5,-125 1,-125"/>
<text text-anchor="start" x="8" y="-190.7" font-family="Helvetica,Arial,sans-serif" font-size="14.00">+ properties</text>
<text text-anchor="start" x="8" y="-171.7" font-family="Helvetica,Arial,sans-serif" font-size="14.00">&#45; DNode[] dependencies &#160;&#160;</text>
<text text-anchor="start" x="8" y="-152.7" font-family="Helvetica,Arial,sans-serif" font-size="14.00">&#45; Statement entity</text>
<text text-anchor="start" x="8" y="-133.7" font-family="Helvetica,Arial,sans-serif" font-size="14.00">...</text>
<polygon fill="none" stroke="black" points="1,-100 1,-125 172.5,-125 172.5,-100 1,-100"/>
<text text-anchor="start" x="6" y="-106.7" font-family="Helvetica,Arial,sans-serif" font-size="14.00">+ methods</text>
<polygon fill="none" stroke="black" points="1,-75 1,-100 172.5,-100 172.5,-75 1,-75"/>
<text text-anchor="start" x="6" y="-81.7" font-family="Helvetica,Arial,sans-serif" font-size="14.00">+ needs(DNode)</text>
<polygon fill="none" stroke="black" points="1,-50 1,-75 172.5,-75 172.5,-50 1,-50"/>
<text text-anchor="start" x="6" y="-56.7" font-family="Helvetica,Arial,sans-serif" font-size="14.00">+ isVisited()</text>
<polygon fill="none" stroke="black" points="1,-25 1,-50 172.5,-50 172.5,-25 1,-25"/>
<text text-anchor="start" x="6" y="-31.7" font-family="Helvetica,Arial,sans-serif" font-size="14.00">+ markVisited()</text>
<polygon fill="none" stroke="black" points="1,0 1,-25 172.5,-25 172.5,0 1,0"/>
<text text-anchor="start" x="6" y="-6.7" font-family="Helvetica,Arial,sans-serif" font-size="14.00">+ getEntity()</text>
</g>
<!-- SubDNode_1 -->
<g id="node2" class="node">
<title>SubDNode_1</title>
<polygon fill="#f2f2f2" stroke="none" points="173.5,-483 0,-483 0,-272 173.5,-272 173.5,-483"/>
<polygon fill="none" stroke="black" points="0,-458 0,-483 173.5,-483 173.5,-458 0,-458"/>
<text text-anchor="start" x="5" y="-465.7" font-family="Helvetica,Arial,sans-serif" font-size="14.00"> </text>
<text text-anchor="start" x="8.75" y="-465.7" font-family="Helvetica,Arial,sans-serif" font-weight="bold" font-size="14.00">Variable node (PNode) &#160;&#160;</text>
<text text-anchor="start" x="164.75" y="-465.7" font-family="Helvetica,Arial,sans-serif" font-size="14.00"> </text>
<polygon fill="none" stroke="black" points="0,-372 0,-458 173.5,-458 173.5,-372 0,-372"/>
<text text-anchor="start" x="7" y="-437.7" font-family="Helvetica,Arial,sans-serif" font-size="14.00">+ properties </text>
<text text-anchor="start" x="7" y="-418.7" font-family="Helvetica,Arial,sans-serif" font-size="14.00">&#45; string name</text>
<text text-anchor="start" x="7" y="-399.7" font-family="Helvetica,Arial,sans-serif" font-size="14.00">&#45; string type</text>
<text text-anchor="start" x="7" y="-380.7" font-family="Helvetica,Arial,sans-serif" font-size="14.00">...</text>
<polygon fill="none" stroke="black" points="0,-347 0,-372 173.5,-372 173.5,-347 0,-347"/>
<text text-anchor="start" x="5" y="-353.7" font-family="Helvetica,Arial,sans-serif" font-size="14.00">+ methods</text>
<polygon fill="none" stroke="black" points="0,-322 0,-347 173.5,-347 173.5,-322 0,-322"/>
<text text-anchor="start" x="5" y="-328.7" font-family="Helvetica,Arial,sans-serif" font-size="14.00">+ getName()</text>
<polygon fill="none" stroke="black" points="0,-297 0,-322 173.5,-322 173.5,-297 0,-297"/>
<text text-anchor="start" x="5" y="-303.7" font-family="Helvetica,Arial,sans-serif" font-size="14.00">+ getType()</text>
<polygon fill="none" stroke="black" points="0,-272 0,-297 173.5,-297 173.5,-272 0,-272"/>
<text text-anchor="start" x="5" y="-278.7" font-family="Helvetica,Arial,sans-serif" font-size="14.00">+ hasAssignment() &#160;&#160;</text>
</g>
<!-- SubDNode_1&#45;&gt;DNode_1 -->
<g id="edge1" class="edge">
<title>SubDNode_1&#45;&gt;DNode_1:containedEntity</title>
<path fill="none" stroke="black" stroke-dasharray="5,2" d="M169.35,-263.05C201.03,-210.28 218.91,-159 168.75,-159"/>
<polygon fill="none" stroke="black" points="165.97,-260.86 163.72,-271.21 171.94,-264.52 165.97,-260.86"/>
<text text-anchor="middle" x="226.49" y="-226.09" font-family="Helvetica,Arial,sans-serif" font-size="14.00">pooled by &#160;&#160;&#160;</text>
</g>
</g>
</svg>
