<?xml version="1.0" encoding="UTF-8" standalone="no"?>
<!DOCTYPE svg PUBLIC "-//W3C//DTD SVG 1.1//EN"
 "http://www.w3.org/Graphics/SVG/1.1/DTD/svg11.dtd">
<!-- Generated by graphviz version 8.1.0 (20230707.0739)
 -->
<!-- Title: CodequeueProcess Pages: 1 -->
<svg width="459pt" height="733pt"
 viewBox="0.00 0.00 458.91 733.00" xmlns="http://www.w3.org/2000/svg" xmlns:xlink="http://www.w3.org/1999/xlink">
<g id="graph0" class="graph" transform="scale(1 1) rotate(0) translate(4 729)">
<title>CodequeueProcess</title>
<polygon fill="white" stroke="none" points="-4,4 -4,-729 454.91,-729 454.91,4 -4,4"/>
<text text-anchor="middle" x="225.46" y="-707.7" font-family="Helvetica,Arial,sans-serif" font-size="14.00">Code queueing process</text>
<g id="clust1" class="cluster">
<title>clusterLiteral</title>
<polygon fill="lightgrey" stroke="lightgrey" points="311,-8 311,-84 397,-84 397,-8 311,-8"/>
<text text-anchor="middle" x="354" y="-66.7" font-family="Helvetica,Arial,sans-serif" font-size="14.00">LiteralValue</text>
</g>
<g id="clust2" class="cluster">
<title>clusterFuncCall</title>
<polygon fill="lightgrey" stroke="lightgrey" points="8,-8 8,-84 116,-84 116,-8 8,-8"/>
<text text-anchor="middle" x="62" y="-66.7" font-family="Helvetica,Arial,sans-serif" font-size="14.00">FuncCall</text>
</g>
<g id="clust3" class="cluster">
<title>clusterBinaryOp</title>
<polygon fill="lightgrey" stroke="lightgrey" points="51,-92 51,-168 315,-168 315,-92 51,-92"/>
<text text-anchor="middle" x="183" y="-150.7" font-family="Helvetica,Arial,sans-serif" font-size="14.00">BinaryOp</text>
</g>
<!-- Codequeue0 -->
<g id="node1" class="node">
<title>Codequeue0</title>
<polygon fill="#f2f2f2" stroke="none" points="418.62,-702 253.38,-702 253.38,-646.5 418.62,-646.5 418.62,-702"/>
<polygon fill="none" stroke="black" points="253.38,-677 253.38,-702 418.62,-702 418.62,-677 253.38,-677"/>
<text text-anchor="start" x="258.38" y="-684.7" font-family="Helvetica,Arial,sans-serif" font-size="14.00"> </text>
<text text-anchor="start" x="262.12" y="-684.7" font-family="Helvetica,Arial,sans-serif" font-weight="bold" font-size="14.00">Code queue (state 0) &#160;&#160;&#160;</text>
<text text-anchor="start" x="409.88" y="-684.7" font-family="Helvetica,Arial,sans-serif" font-size="14.00"> </text>
<polygon fill="none" stroke="black" points="253.38,-646.5 253.38,-677 418.62,-677 418.62,-646.5 253.38,-646.5"/>
<text text-anchor="start" x="260.38" y="-657.7" font-family="Helvetica,Arial,sans-serif" font-size="14.00"> &#160;&#160;&#160;&#160;&#160;&#160;&#160;</text>
<text text-anchor="start" x="290.38" y="-657.7" font-family="Helvetica,Arial,sans-serif" font-style="italic" font-size="14.00">Empty queue</text>
<text text-anchor="start" x="370.62" y="-657.7" font-family="Helvetica,Arial,sans-serif" font-size="14.00"> &#160;&#160;&#160;</text>
</g>
<!-- Codequeue1 -->
<g id="node2" class="node">
<title>Codequeue1</title>
<polygon fill="#f2f2f2" stroke="none" points="418.62,-610.5 253.38,-610.5 253.38,-556.5 418.62,-556.5 418.62,-610.5"/>
<polygon fill="none" stroke="black" points="253.38,-585.5 253.38,-610.5 418.62,-610.5 418.62,-585.5 253.38,-585.5"/>
<text text-anchor="start" x="258.38" y="-593.2" font-family="Helvetica,Arial,sans-serif" font-size="14.00"> </text>
<text text-anchor="start" x="262.12" y="-593.2" font-family="Helvetica,Arial,sans-serif" font-weight="bold" font-size="14.00">Code queue (state 1)</text>
<text text-anchor="start" x="394.88" y="-593.2" font-family="Helvetica,Arial,sans-serif" font-size="14.00"> &#160;&#160;&#160;&#160;</text>
<polygon fill="none" stroke="black" points="253.38,-556.5 253.38,-585.5 418.62,-585.5 418.62,-556.5 253.38,-556.5"/>
<text text-anchor="start" x="260.38" y="-565.2" font-family="Helvetica,Arial,sans-serif" font-size="14.00">&#45; LiteralValue</text>
</g>
<!-- Codequeue0&#45;&gt;Codequeue1 -->
<g id="edge1" class="edge">
<title>Codequeue0&#45;&gt;Codequeue1</title>
<path fill="none" stroke="black" d="M336,-646.62C336,-638.67 336,-629.81 336,-621.32"/>
<polygon fill="black" stroke="black" points="339.5,-621.5 336,-611.5 332.5,-621.5 339.5,-621.5"/>
<text text-anchor="middle" x="298.12" y="-632.49" font-family="Times,serif" font-size="14.00">addInstr() </text>
</g>
<!-- cl1_value -->
<g id="node3" class="node">
<title>cl1_value</title>
<polygon fill="#f2f2f2" stroke="black" points="322.38,-16.5 322.38,-52.5 385.62,-52.5 385.62,-16.5 322.38,-16.5"/>
<text text-anchor="middle" x="354" y="-28.7" font-family="Helvetica,Arial,sans-serif" font-size="14.00">value: 1</text>
</g>
<!-- Codequeue1&#45;&gt;cl1_value -->
<g id="edge2" class="edge">
<title>Codequeue1:ss1&#45;&gt;cl1_value</title>
<path fill="none" stroke="black" d="M415,-570.5C497.24,-570.5 411,-467.74 411,-385.5 411,-385.5 411,-385.5 411,-202 411,-150.17 385.97,-93.92 369.08,-61.86"/>
<polygon fill="black" stroke="black" points="371.77,-60.47 363.93,-53.34 365.61,-63.8 371.77,-60.47"/>
</g>
<!-- Codequeue2 -->
<g id="node5" class="node">
<title>Codequeue2</title>
<polygon fill="#f2f2f2" stroke="none" points="363.62,-520.5 198.38,-520.5 198.38,-447.5 363.62,-447.5 363.62,-520.5"/>
<polygon fill="none" stroke="black" points="198.38,-495.5 198.38,-520.5 363.62,-520.5 363.62,-495.5 198.38,-495.5"/>
<text text-anchor="start" x="203.38" y="-503.2" font-family="Helvetica,Arial,sans-serif" font-size="14.00"> </text>
<text text-anchor="start" x="207.12" y="-503.2" font-family="Helvetica,Arial,sans-serif" font-weight="bold" font-size="14.00">Code queue (state 2) &#160;&#160;&#160;</text>
<text text-anchor="start" x="354.88" y="-503.2" font-family="Helvetica,Arial,sans-serif" font-size="14.00"> </text>
<polygon fill="none" stroke="black" points="198.38,-447.5 198.38,-495.5 363.62,-495.5 363.62,-447.5 198.38,-447.5"/>
<text text-anchor="start" x="205.38" y="-475.2" font-family="Helvetica,Arial,sans-serif" font-size="14.00">&#45; FuncCall</text>
<text text-anchor="start" x="205.38" y="-456.2" font-family="Helvetica,Arial,sans-serif" font-size="14.00">&#45; LiteralValue</text>
</g>
<!-- Codequeue1&#45;&gt;Codequeue2 -->
<g id="edge3" class="edge">
<title>Codequeue1&#45;&gt;Codequeue2</title>
<path fill="none" stroke="black" d="M321.41,-556.63C316.58,-548.08 311.07,-538.31 305.71,-528.8"/>
<polygon fill="black" stroke="black" points="300.84,-520.17 309.67,-526.67 303.3,-524.53 305.75,-528.88 305.75,-528.88 305.75,-528.88 303.3,-524.53 301.83,-531.09 300.84,-520.17 300.84,-520.17"/>
<text text-anchor="middle" x="273.13" y="-542.14" font-family="Times,serif" font-size="14.00">addInstr() </text>
</g>
<!-- cl2_value -->
<g id="node4" class="node">
<title>cl2_value</title>
<polygon fill="#f2f2f2" stroke="black" points="15.75,-16.5 15.75,-52.5 108.25,-52.5 108.25,-16.5 15.75,-16.5"/>
<text text-anchor="middle" x="62" y="-28.7" font-family="Helvetica,Arial,sans-serif" font-size="14.00">symbol: func</text>
</g>
<!-- Codequeue2&#45;&gt;cl1_value -->
<g id="edge5" class="edge">
<title>Codequeue2:ss2&#45;&gt;cl1_value</title>
<path fill="none" stroke="black" d="M360,-462C434.56,-462 373,-369.31 373,-294.75 373,-294.75 373,-294.75 373,-202 373,-152.38 364.57,-94.98 358.94,-62.19"/>
<polygon fill="black" stroke="black" points="357.22,-52.45 363.39,-61.51 358.09,-57.37 358.96,-62.29 358.96,-62.29 358.96,-62.29 358.09,-57.37 354.53,-63.07 357.22,-52.45 357.22,-52.45"/>
</g>
<!-- Codequeue2&#45;&gt;cl2_value -->
<g id="edge4" class="edge">
<title>Codequeue2:ss1&#45;&gt;cl2_value</title>
<path fill="none" stroke="black" d="M202,-481C89.62,-481 31,-407.13 31,-294.75 31,-294.75 31,-294.75 31,-202 31,-151.64 44.88,-94.13 54.06,-61.59"/>
<polygon fill="black" stroke="black" points="56.74,-52.33 58.29,-63.18 55.35,-57.13 53.96,-61.93 53.96,-61.93 53.96,-61.93 55.35,-57.13 49.64,-60.68 56.74,-52.33 56.74,-52.33"/>
</g>
<!-- Codequeue3 -->
<g id="node6" class="node">
<title>Codequeue3</title>
<polygon fill="#f2f2f2" stroke="none" points="344.62,-411.5 179.38,-411.5 179.38,-357.5 344.62,-357.5 344.62,-411.5"/>
<polygon fill="none" stroke="black" points="179.38,-386.5 179.38,-411.5 344.62,-411.5 344.62,-386.5 179.38,-386.5"/>
<text text-anchor="start" x="184.38" y="-394.2" font-family="Helvetica,Arial,sans-serif" font-size="14.00"> </text>
<text text-anchor="start" x="188.12" y="-394.2" font-family="Helvetica,Arial,sans-serif" font-weight="bold" font-size="14.00">Code queue (state 3) &#160;&#160;&#160;</text>
<text text-anchor="start" x="335.88" y="-394.2" font-family="Helvetica,Arial,sans-serif" font-size="14.00"> </text>
<polygon fill="none" stroke="black" points="179.38,-357.5 179.38,-386.5 344.62,-386.5 344.62,-357.5 179.38,-357.5"/>
<text text-anchor="start" x="186.38" y="-366.2" font-family="Helvetica,Arial,sans-serif" font-size="14.00">&#45; LiteralValue</text>
</g>
<!-- Codequeue2&#45;&gt;Codequeue3 -->
<g id="edge6" class="edge">
<title>Codequeue2&#45;&gt;Codequeue3</title>
<path fill="none" stroke="black" d="M274.09,-447.52C272.41,-438.91 270.61,-429.71 268.94,-421.09"/>
<polygon fill="black" stroke="black" points="267.03,-411.32 273.36,-420.28 267.99,-416.23 268.94,-421.14 268.94,-421.14 268.94,-421.14 267.99,-416.23 264.53,-422 267.03,-411.32 267.03,-411.32"/>
<text text-anchor="middle" x="232.66" y="-433.26" font-family="Times,serif" font-size="14.00">popInstr() </text>
</g>
<!-- Codequeue3&#45;&gt;cl1_value -->
<g id="edge7" class="edge">
<title>Codequeue3:ss2&#45;&gt;cl1_value</title>
<path fill="none" stroke="black" d="M290.61,-357.59C300.22,-347.31 310.01,-334.77 316,-321.5 356.03,-232.89 357.2,-114.21 355.43,-62.02"/>
<polygon fill="black" stroke="black" points="355.03,-52.21 359.93,-62.02 355.23,-57.2 355.44,-62.2 355.44,-62.2 355.44,-62.2 355.23,-57.2 350.94,-62.38 355.03,-52.21 355.03,-52.21"/>
</g>
<!-- Codequeue4 -->
<g id="node7" class="node">
<title>Codequeue4</title>
<polygon fill="#f2f2f2" stroke="none" points="307.12,-321.5 126.88,-321.5 126.88,-266 307.12,-266 307.12,-321.5"/>
<polygon fill="none" stroke="black" points="126.88,-296.5 126.88,-321.5 307.12,-321.5 307.12,-296.5 126.88,-296.5"/>
<text text-anchor="start" x="131.88" y="-304.2" font-family="Helvetica,Arial,sans-serif" font-size="14.00"> </text>
<text text-anchor="start" x="135.62" y="-304.2" font-family="Helvetica,Arial,sans-serif" font-weight="bold" font-size="14.00">Code queue (state 4.0 ) &#160;&#160;&#160;</text>
<text text-anchor="start" x="298.38" y="-304.2" font-family="Helvetica,Arial,sans-serif" font-size="14.00"> </text>
<polygon fill="none" stroke="black" points="126.88,-266 126.88,-296.5 307.12,-296.5 307.12,-266 126.88,-266"/>
<text text-anchor="start" x="133.88" y="-277.2" font-family="Helvetica,Arial,sans-serif" font-size="14.00"> &#160;&#160;&#160;&#160;&#160;&#160;&#160;</text>
<text text-anchor="start" x="163.88" y="-277.2" font-family="Helvetica,Arial,sans-serif" font-style="italic" font-size="14.00">Empty queue</text>
<text text-anchor="start" x="244.12" y="-277.2" font-family="Helvetica,Arial,sans-serif" font-size="14.00"> &#160;&#160;&#160;</text>
</g>
<!-- Codequeue3&#45;&gt;Codequeue4 -->
<g id="edge8" class="edge">
<title>Codequeue3&#45;&gt;Codequeue4</title>
<path fill="none" stroke="black" d="M248.98,-357.83C244.58,-349.14 239.58,-339.28 234.86,-329.98"/>
<polygon fill="black" stroke="black" points="230.46,-321.29 238.99,-328.17 232.72,-325.75 234.98,-330.21 234.98,-330.21 234.98,-330.21 232.72,-325.75 230.96,-332.24 230.46,-321.29 230.46,-321.29"/>
<text text-anchor="middle" x="201.92" y="-343.65" font-family="Times,serif" font-size="14.00">popInstr() </text>
</g>
<!-- Codequeue5 -->
<g id="node8" class="node">
<title>Codequeue5</title>
<polygon fill="#f2f2f2" stroke="none" points="307.12,-230 126.88,-230 126.88,-176 307.12,-176 307.12,-230"/>
<polygon fill="none" stroke="black" points="126.88,-205 126.88,-230 307.12,-230 307.12,-205 126.88,-205"/>
<text text-anchor="start" x="131.88" y="-212.7" font-family="Helvetica,Arial,sans-serif" font-size="14.00"> </text>
<text text-anchor="start" x="135.62" y="-212.7" font-family="Helvetica,Arial,sans-serif" font-weight="bold" font-size="14.00">Code queue (state 4.1 ) &#160;&#160;&#160;</text>
<text text-anchor="start" x="298.38" y="-212.7" font-family="Helvetica,Arial,sans-serif" font-size="14.00"> </text>
<polygon fill="none" stroke="black" points="126.88,-176 126.88,-205 307.12,-205 307.12,-176 126.88,-176"/>
<text text-anchor="start" x="133.88" y="-184.7" font-family="Helvetica,Arial,sans-serif" font-size="14.00">&#45; BinOpInstr</text>
</g>
<!-- Codequeue4&#45;&gt;Codequeue5 -->
<g id="edge9" class="edge">
<title>Codequeue4&#45;&gt;Codequeue5</title>
<path fill="none" stroke="black" d="M217,-266.12C217,-257.9 217,-248.71 217,-239.97"/>
<polygon fill="black" stroke="black" points="217,-230 221.5,-240 217,-235 217,-240 217,-240 217,-240 217,-235 212.5,-240 217,-230 217,-230"/>
<text text-anchor="middle" x="179.12" y="-251.78" font-family="Times,serif" font-size="14.00">addInstr() </text>
</g>
<!-- cl3_value -->
<g id="node9" class="node">
<title>cl3_value</title>
<polygon fill="#f2f2f2" stroke="black" points="225,-100.5 225,-136.5 307,-136.5 307,-100.5 225,-100.5"/>
<text text-anchor="middle" x="266" y="-112.7" font-family="Helvetica,Arial,sans-serif" font-size="14.00">operator: +</text>
</g>
<!-- Codequeue5&#45;&gt;cl3_value -->
<g id="edge12" class="edge">
<title>Codequeue5:ss1&#45;&gt;cl3_value</title>
<path fill="none" stroke="black" d="M217,-180C217,-165.86 225.18,-153.17 234.86,-143.12"/>
<polygon fill="black" stroke="black" points="242.07,-136.27 237.92,-146.42 238.45,-139.71 234.82,-143.15 234.82,-143.15 234.82,-143.15 238.45,-139.71 231.72,-139.89 242.07,-136.27 242.07,-136.27"/>
</g>
<!-- leftInstr -->
<g id="node10" class="node">
<title>leftInstr</title>
<polygon fill="#f2f2f2" stroke="black" points="145.5,-100.5 145.5,-136.5 206.5,-136.5 206.5,-100.5 145.5,-100.5"/>
<text text-anchor="middle" x="176" y="-112.7" font-family="Helvetica,Arial,sans-serif" font-size="14.00">leftInstr</text>
</g>
<!-- leftInstr&#45;&gt;cl1_value -->
<g id="edge10" class="edge">
<title>leftInstr&#45;&gt;cl1_value</title>
<path fill="none" stroke="black" d="M200.99,-100.61C205.87,-97.58 211.03,-94.58 216,-92 247.8,-75.52 285.54,-60.35 313.51,-49.89"/>
<polygon fill="black" stroke="black" points="322.59,-46.53 314.78,-54.22 317.9,-48.26 313.21,-50 313.21,-50 313.21,-50 317.9,-48.26 311.65,-45.78 322.59,-46.53 322.59,-46.53"/>
</g>
<!-- rightInstr -->
<g id="node11" class="node">
<title>rightInstr</title>
<polygon fill="#f2f2f2" stroke="black" points="58.75,-100.5 58.75,-136.5 127.25,-136.5 127.25,-100.5 58.75,-100.5"/>
<text text-anchor="middle" x="93" y="-112.7" font-family="Helvetica,Arial,sans-serif" font-size="14.00">rightInstr</text>
</g>
<!-- rightInstr&#45;&gt;cl2_value -->
<g id="edge11" class="edge">
<title>rightInstr&#45;&gt;cl2_value</title>
<path fill="none" stroke="black" d="M86.58,-100.51C82.34,-89.29 76.7,-74.38 71.89,-61.67"/>
<polygon fill="black" stroke="black" points="68.41,-52.47 76.16,-60.23 70.18,-57.15 71.95,-61.82 71.95,-61.82 71.95,-61.82 70.18,-57.15 67.74,-63.41 68.41,-52.47 68.41,-52.47"/>
</g>
</g>
</svg>
