<?xml version="1.0" encoding="UTF-8" standalone="no"?>
<!DOCTYPE svg PUBLIC "-//W3C//DTD SVG 1.1//EN"
 "http://www.w3.org/Graphics/SVG/1.1/DTD/svg11.dtd">
<!-- Generated by graphviz version 5.0.0 (0)
 -->
<!-- Title: CompilationProcess Pages: 1 -->
<svg width="199pt" height="553pt"
 viewBox="0.00 0.00 199.00 553.00" xmlns="http://www.w3.org/2000/svg" xmlns:xlink="http://www.w3.org/1999/xlink">
<g id="graph0" class="graph" transform="scale(1 1) rotate(0) translate(4 549)">
<title>CompilationProcess</title>
<polygon fill="white" stroke="transparent" points="-4,4 -4,-549 195,-549 195,4 -4,4"/>
<text text-anchor="middle" x="95.5" y="-529.8" font-family="Helvetica,Arial,sans-serif" font-size="14.00">Compilation process</text>
<!-- Lexer -->
<g id="node1" class="node">
<title>Lexer</title>
<polygon fill="#f2f2f2" stroke="transparent" points="123,-522 68,-522 68,-497 123,-497 123,-522"/>
<polygon fill="none" stroke="black" points="68.5,-496.5 68.5,-521.5 123.5,-521.5 123.5,-496.5 68.5,-496.5"/>
<text text-anchor="start" x="73.5" y="-506.3" font-family="Helvetica,Arial,sans-serif" font-size="14.00"> </text>
<text text-anchor="start" x="77.5" y="-506.3" font-family="Helvetica,Arial,sans-serif" font-weight="bold" font-size="14.00">Lexer</text>
<text text-anchor="start" x="114.5" y="-506.3" font-family="Helvetica,Arial,sans-serif" font-size="14.00"> </text>
</g>
<!-- Parser -->
<g id="node2" class="node">
<title>Parser</title>
<polygon fill="#f2f2f2" stroke="transparent" points="126,-461 65,-461 65,-436 126,-436 126,-461"/>
<polygon fill="none" stroke="black" points="65.5,-435.5 65.5,-460.5 126.5,-460.5 126.5,-435.5 65.5,-435.5"/>
<text text-anchor="start" x="70.5" y="-445.3" font-family="Helvetica,Arial,sans-serif" font-size="14.00"> </text>
<text text-anchor="start" x="74.5" y="-445.3" font-family="Helvetica,Arial,sans-serif" font-weight="bold" font-size="14.00">Parser</text>
<text text-anchor="start" x="117.5" y="-445.3" font-family="Helvetica,Arial,sans-serif" font-size="14.00"> </text>
</g>
<!-- Lexer&#45;&gt;Parser -->
<g id="edge1" class="edge">
<title>Lexer&#45;&gt;Parser</title>
<path fill="none" stroke="black" d="M95.5,-496.84C95.5,-489.57 95.5,-479.98 95.5,-471.33"/>
<polygon fill="black" stroke="black" points="95.5,-461.13 100,-471.13 95.5,-466.13 95.5,-471.13 95.5,-471.13 95.5,-471.13 95.5,-466.13 91,-471.13 95.5,-461.13 95.5,-461.13"/>
<text text-anchor="middle" x="75.5" y="-482.58" font-family="Helvetica,Arial,sans-serif" font-size="14.00">tokens</text>
</g>
<!-- Symbols -->
<g id="node3" class="node">
<title>Symbols</title>
<polygon fill="#f2f2f2" stroke="transparent" points="188,-400 3,-400 3,-327 188,-327 188,-400"/>
<polygon fill="none" stroke="black" points="3.5,-374.5 3.5,-399.5 188.5,-399.5 188.5,-374.5 3.5,-374.5"/>
<text text-anchor="start" x="63" y="-384.3" font-family="Helvetica,Arial,sans-serif" font-size="14.00"> </text>
<text text-anchor="start" x="67" y="-384.3" font-family="Helvetica,Arial,sans-serif" font-weight="bold" font-size="14.00">Symbols</text>
<text text-anchor="start" x="125" y="-384.3" font-family="Helvetica,Arial,sans-serif" font-size="14.00"> </text>
<polygon fill="none" stroke="black" points="3.5,-326.5 3.5,-374.5 188.5,-374.5 188.5,-326.5 3.5,-326.5"/>
<text text-anchor="start" x="10.5" y="-356.3" font-family="Helvetica,Arial,sans-serif" font-size="14.00">&#45; Pseudo&#45;entity resolution &#160;&#160;&#160;</text>
<text text-anchor="start" x="10.5" y="-337.3" font-family="Helvetica,Arial,sans-serif" font-size="14.00">&#45; Name collision detection &#160;&#160;&#160;</text>
</g>
<!-- Parser&#45;&gt;Symbols -->
<g id="edge2" class="edge">
<title>Parser&#45;&gt;Symbols</title>
<path fill="none" stroke="black" d="M95.5,-435.96C95.5,-429.16 95.5,-420.05 95.5,-410.62"/>
<polygon fill="black" stroke="black" points="95.5,-400.36 100,-410.36 95.5,-405.36 95.5,-410.36 95.5,-410.36 95.5,-410.36 95.5,-405.36 91,-410.36 95.5,-400.36 95.5,-400.36"/>
<text text-anchor="middle" x="66" y="-421.83" font-family="Helvetica,Arial,sans-serif" font-size="14.00">Container</text>
</g>
<!-- Dependency -->
<g id="node4" class="node">
<title>Dependency</title>
<polygon fill="#f2f2f2" stroke="transparent" points="186,-291 5,-291 5,-218 186,-218 186,-291"/>
<polygon fill="none" stroke="black" points="5.5,-265.5 5.5,-290.5 186.5,-290.5 186.5,-265.5 5.5,-265.5"/>
<text text-anchor="start" x="51" y="-275.3" font-family="Helvetica,Arial,sans-serif" font-size="14.00"> </text>
<text text-anchor="start" x="55" y="-275.3" font-family="Helvetica,Arial,sans-serif" font-weight="bold" font-size="14.00">Dependency</text>
<text text-anchor="start" x="137" y="-275.3" font-family="Helvetica,Arial,sans-serif" font-size="14.00"> </text>
<polygon fill="none" stroke="black" points="5.5,-217.5 5.5,-265.5 186.5,-265.5 186.5,-217.5 5.5,-217.5"/>
<text text-anchor="start" x="12.5" y="-247.3" font-family="Helvetica,Arial,sans-serif" font-size="14.00">&#45; Dependency generation &#160;&#160;&#160;</text>
<text text-anchor="start" x="12.5" y="-228.3" font-family="Helvetica,Arial,sans-serif" font-size="14.00">&#45; Linearization &#160;&#160;&#160;</text>
</g>
<!-- Symbols&#45;&gt;Dependency -->
<g id="edge3" class="edge">
<title>Symbols&#45;&gt;Dependency</title>
<path fill="none" stroke="black" d="M95.5,-326.87C95.5,-318.75 95.5,-310 95.5,-301.51"/>
<polygon fill="black" stroke="black" points="95.5,-291.34 100,-301.34 95.5,-296.34 95.5,-301.34 95.5,-301.34 95.5,-301.34 95.5,-296.34 91,-301.34 95.5,-291.34 95.5,-291.34"/>
<text text-anchor="middle" x="66" y="-312.91" font-family="Helvetica,Arial,sans-serif" font-size="14.00">Container</text>
</g>
<!-- TypeCheckCodeGen -->
<g id="node5" class="node">
<title>TypeCheckCodeGen</title>
<polygon fill="#f2f2f2" stroke="transparent" points="164.5,-182 26.5,-182 26.5,-109 164.5,-109 164.5,-182"/>
<polygon fill="none" stroke="black" points="26.5,-156.5 26.5,-181.5 164.5,-181.5 164.5,-156.5 26.5,-156.5"/>
<text text-anchor="start" x="70" y="-166.3" font-family="Helvetica,Arial,sans-serif" font-size="14.00"> </text>
<text text-anchor="start" x="74" y="-166.3" font-family="Helvetica,Arial,sans-serif" font-weight="bold" font-size="14.00">TC/GC</text>
<text text-anchor="start" x="117" y="-166.3" font-family="Helvetica,Arial,sans-serif" font-size="14.00"> </text>
<polygon fill="none" stroke="black" points="26.5,-108.5 26.5,-156.5 164.5,-156.5 164.5,-108.5 26.5,-108.5"/>
<text text-anchor="start" x="33.5" y="-138.3" font-family="Helvetica,Arial,sans-serif" font-size="14.00">&#45; Type checking &#160;&#160;&#160;</text>
<text text-anchor="start" x="33.5" y="-119.3" font-family="Helvetica,Arial,sans-serif" font-size="14.00">&#45; Code generation &#160;&#160;&#160;</text>
</g>
<!-- Dependency&#45;&gt;TypeCheckCodeGen -->
<g id="edge4" class="edge">
<title>Dependency&#45;&gt;TypeCheckCodeGen</title>
<path fill="none" stroke="black" d="M95.5,-217.87C95.5,-209.75 95.5,-201 95.5,-192.51"/>
<polygon fill="black" stroke="black" points="95.5,-182.34 100,-192.34 95.5,-187.34 95.5,-192.34 95.5,-192.34 95.5,-192.34 95.5,-187.34 91,-192.34 95.5,-182.34 95.5,-182.34"/>
<text text-anchor="middle" x="70.5" y="-203.91" font-family="Helvetica,Arial,sans-serif" font-size="14.00">DNodes</text>
</g>
<!-- InstructionEmit -->
<g id="node6" class="node">
<title>InstructionEmit</title>
<polygon fill="#f2f2f2" stroke="transparent" points="191,-73 0,-73 0,0 191,0 191,-73"/>
<polygon fill="none" stroke="black" points="0.5,-47.5 0.5,-72.5 191.5,-72.5 191.5,-47.5 0.5,-47.5"/>
<text text-anchor="start" x="76.5" y="-57.3" font-family="Helvetica,Arial,sans-serif" font-size="14.00"> </text>
<text text-anchor="start" x="80.5" y="-57.3" font-family="Helvetica,Arial,sans-serif" font-weight="bold" font-size="14.00">Emit</text>
<text text-anchor="start" x="111.5" y="-57.3" font-family="Helvetica,Arial,sans-serif" font-size="14.00"> </text>
<polygon fill="none" stroke="black" points="0.5,0.5 0.5,-47.5 191.5,-47.5 191.5,0.5 0.5,0.5"/>
<text text-anchor="start" x="7.5" y="-29.3" font-family="Helvetica,Arial,sans-serif" font-size="14.00">&#45; Instruction transformation &#160;&#160;&#160;</text>
<text text-anchor="start" x="7.5" y="-10.3" font-family="Helvetica,Arial,sans-serif" font-size="14.00">&#45; Symbol mapping &#160;&#160;&#160;</text>
</g>
<!-- TypeCheckCodeGen&#45;&gt;InstructionEmit -->
<g id="edge5" class="edge">
<title>TypeCheckCodeGen&#45;&gt;InstructionEmit</title>
<path fill="none" stroke="black" d="M95.5,-108.87C95.5,-100.75 95.5,-92 95.5,-83.51"/>
<polygon fill="black" stroke="black" points="95.5,-73.34 100,-83.34 95.5,-78.34 95.5,-83.34 95.5,-83.34 95.5,-83.34 95.5,-78.34 91,-83.34 95.5,-73.34 95.5,-73.34"/>
<text text-anchor="middle" x="60.5" y="-94.91" font-family="Helvetica,Arial,sans-serif" font-size="14.00">Instructions</text>
</g>
</g>
</svg>
