<?xml version="1.0" encoding="UTF-8" standalone="no"?>
<!DOCTYPE svg PUBLIC "-//W3C//DTD SVG 1.1//EN"
 "http://www.w3.org/Graphics/SVG/1.1/DTD/svg11.dtd">
<!-- Generated by graphviz version 7.1.0 (0)
 -->
<!-- Title: Pooling Pages: 1 -->
<svg width="273pt" height="514pt"
 viewBox="0.00 0.00 272.58 514.00" xmlns="http://www.w3.org/2000/svg" xmlns:xlink="http://www.w3.org/1999/xlink">
<g id="graph0" class="graph" transform="scale(1 1) rotate(0) translate(4 510)">
<title>Pooling</title>
<polygon fill="white" stroke="none" points="-4,4 -4,-510 268.58,-510 268.58,4 -4,4"/>
<text text-anchor="middle" x="132.29" y="-490.8" font-family="Helvetica,Arial,sans-serif" font-size="14.00">Pooling of a parse node to a DNode</text>
<!-- DNode_1 -->
<g id="node1" class="node">
<title>DNode_1</title>
<polygon fill="#f2f2f2" stroke="none" points="173.5,-236 1.5,-236 1.5,0 173.5,0 173.5,-236"/>
<polygon fill="none" stroke="black" points="1.5,-211 1.5,-236 173.5,-236 173.5,-211 1.5,-211"/>
<text text-anchor="start" x="61" y="-220.8" font-family="Helvetica,Arial,sans-serif" font-size="14.00"> </text>
<text text-anchor="start" x="65" y="-220.8" font-family="Helvetica,Arial,sans-serif" font-weight="bold" font-size="14.00">DNode</text>
<text text-anchor="start" x="110" y="-220.8" font-family="Helvetica,Arial,sans-serif" font-size="14.00"> </text>
<polygon fill="none" stroke="black" points="1.5,-125 1.5,-211 173.5,-211 173.5,-125 1.5,-125"/>
<text text-anchor="start" x="8.5" y="-192.8" font-family="Helvetica,Arial,sans-serif" font-size="14.00">+ properties</text>
<text text-anchor="start" x="8.5" y="-173.8" font-family="Helvetica,Arial,sans-serif" font-size="14.00">&#45; DNode[] dependencies &#160;&#160;</text>
<text text-anchor="start" x="8.5" y="-154.8" font-family="Helvetica,Arial,sans-serif" font-size="14.00">&#45; Statement entity</text>
<text text-anchor="start" x="8.5" y="-135.8" font-family="Helvetica,Arial,sans-serif" font-size="14.00">...</text>
<polygon fill="none" stroke="black" points="1.5,-100 1.5,-125 173.5,-125 173.5,-100 1.5,-100"/>
<text text-anchor="start" x="6.5" y="-108.8" font-family="Helvetica,Arial,sans-serif" font-size="14.00">+ methods</text>
<polygon fill="none" stroke="black" points="1.5,-75 1.5,-100 173.5,-100 173.5,-75 1.5,-75"/>
<text text-anchor="start" x="6.5" y="-83.8" font-family="Helvetica,Arial,sans-serif" font-size="14.00">+ needs(DNode)</text>
<polygon fill="none" stroke="black" points="1.5,-50 1.5,-75 173.5,-75 173.5,-50 1.5,-50"/>
<text text-anchor="start" x="6.5" y="-58.8" font-family="Helvetica,Arial,sans-serif" font-size="14.00">+ isVisited()</text>
<polygon fill="none" stroke="black" points="1.5,-25 1.5,-50 173.5,-50 173.5,-25 1.5,-25"/>
<text text-anchor="start" x="6.5" y="-33.8" font-family="Helvetica,Arial,sans-serif" font-size="14.00">+ markVisited()</text>
<polygon fill="none" stroke="black" points="1.5,0 1.5,-25 173.5,-25 173.5,0 1.5,0"/>
<text text-anchor="start" x="6.5" y="-8.8" font-family="Helvetica,Arial,sans-serif" font-size="14.00">+ getEntity()</text>
</g>
<!-- SubDNode_1 -->
<g id="node2" class="node">
<title>SubDNode_1</title>
<polygon fill="#f2f2f2" stroke="none" points="175,-483 0,-483 0,-272 175,-272 175,-483"/>
<polygon fill="none" stroke="black" points="0.5,-457.5 0.5,-482.5 175.5,-482.5 175.5,-457.5 0.5,-457.5"/>
<text text-anchor="start" x="5.5" y="-467.3" font-family="Helvetica,Arial,sans-serif" font-size="14.00"> </text>
<text text-anchor="start" x="9.5" y="-467.3" font-family="Helvetica,Arial,sans-serif" font-weight="bold" font-size="14.00">Variable node (PNode) &#160;&#160;</text>
<text text-anchor="start" x="166.5" y="-467.3" font-family="Helvetica,Arial,sans-serif" font-size="14.00"> </text>
<polygon fill="none" stroke="black" points="0.5,-371.5 0.5,-457.5 175.5,-457.5 175.5,-371.5 0.5,-371.5"/>
<text text-anchor="start" x="7.5" y="-439.3" font-family="Helvetica,Arial,sans-serif" font-size="14.00">+ properties </text>
<text text-anchor="start" x="7.5" y="-420.3" font-family="Helvetica,Arial,sans-serif" font-size="14.00">&#45; string name</text>
<text text-anchor="start" x="7.5" y="-401.3" font-family="Helvetica,Arial,sans-serif" font-size="14.00">&#45; string type</text>
<text text-anchor="start" x="7.5" y="-382.3" font-family="Helvetica,Arial,sans-serif" font-size="14.00">...</text>
<polygon fill="none" stroke="black" points="0.5,-346.5 0.5,-371.5 175.5,-371.5 175.5,-346.5 0.5,-346.5"/>
<text text-anchor="start" x="5.5" y="-355.3" font-family="Helvetica,Arial,sans-serif" font-size="14.00">+ methods</text>
<polygon fill="none" stroke="black" points="0.5,-321.5 0.5,-346.5 175.5,-346.5 175.5,-321.5 0.5,-321.5"/>
<text text-anchor="start" x="5.5" y="-330.3" font-family="Helvetica,Arial,sans-serif" font-size="14.00">+ getName()</text>
<polygon fill="none" stroke="black" points="0.5,-296.5 0.5,-321.5 175.5,-321.5 175.5,-296.5 0.5,-296.5"/>
<text text-anchor="start" x="5.5" y="-305.3" font-family="Helvetica,Arial,sans-serif" font-size="14.00">+ getType()</text>
<polygon fill="none" stroke="black" points="0.5,-271.5 0.5,-296.5 175.5,-296.5 175.5,-271.5 0.5,-271.5"/>
<text text-anchor="start" x="5.5" y="-280.3" font-family="Helvetica,Arial,sans-serif" font-size="14.00">+ hasAssignment() &#160;&#160;</text>
</g>
<!-- SubDNode_1&#45;&gt;DNode_1 -->
<g id="edge1" class="edge">
<title>SubDNode_1&#45;&gt;DNode_1:containedEntity</title>
<path fill="none" stroke="black" stroke-dasharray="5,2" d="M170.29,-262.72C201.85,-210.07 219.56,-159 169.5,-159"/>
<polygon fill="none" stroke="black" points="167.51,-260.57 165.26,-270.92 173.48,-264.23 167.51,-260.57"/>
<text text-anchor="middle" x="227.58" y="-227.96" font-family="Helvetica,Arial,sans-serif" font-size="14.00">pooled by &#160;&#160;&#160;</text>
</g>
</g>
</svg>
